<?xml version="1.0" encoding="utf-8"?>
<!-- Generator: Adobe Illustrator 17.0.0, SVG Export Plug-In . SVG Version: 6.00 Build 0)  -->
<!DOCTYPE svg PUBLIC "-//W3C//DTD SVG 1.1//EN" "http://www.w3.org/Graphics/SVG/1.1/DTD/svg11.dtd">
<svg version="1.1" id="Layer_1" xmlns="http://www.w3.org/2000/svg" xmlns:xlink="http://www.w3.org/1999/xlink" x="0px" y="0px"
	 width="841.89px" height="595.28px" viewBox="0 0 841.89 595.28" enable-background="new 0 0 841.89 595.28" xml:space="preserve">
<g>
	<path fill-rule="evenodd" clip-rule="evenodd" fill="#31B44E" d="M346.202,358.725L346.202,358.725
		c1.105,0,2.008,0.903,2.008,2.008v8.716c0,1.104-0.903,2.008-2.008,2.008l0,0c-1.104,0-2.008-0.903-2.008-2.008v-8.716
		C344.194,359.628,345.098,358.725,346.202,358.725L346.202,358.725z"/>
	<path fill-rule="evenodd" clip-rule="evenodd" d="M336.739,342.789L336.739,342.789c1.104,0,2.008,0.903,2.008,2.008v1.582
		c0,1.104-0.903,2.008-2.008,2.008l0,0c-1.104,0-2.008-0.903-2.008-2.008v-1.582C334.731,343.693,335.635,342.789,336.739,342.789
		L336.739,342.789z"/>
	<path fill-rule="evenodd" clip-rule="evenodd" fill="#ED1C24" d="M336.739,352.359L336.739,352.359
		c1.104,0,2.008,0.904,2.008,2.008v11.289l-1.524-0.404l-2.492,0.484v-11.369C334.731,353.263,335.635,352.359,336.739,352.359
		L336.739,352.359z"/>
	<path fill-rule="evenodd" clip-rule="evenodd" fill="#2E3192" d="M322.744,335.185L322.744,335.185
		c1.104,0,2.008,0.904,2.008,2.007v30.485l-4.016,0.781v-31.266C320.736,336.088,321.64,335.185,322.744,335.185L322.744,335.185z"
		/>
	<path fill-rule="evenodd" clip-rule="evenodd" fill="#939598" d="M291.882,368.105L291.882,368.105
		c1.104,0,2.008,0.904,2.008,2.008v25.779l-2.511,0.533v8.01l-1.504,0.245v-34.567C289.874,369.008,290.778,368.105,291.882,368.105
		L291.882,368.105z"/>
	<path fill-rule="evenodd" clip-rule="evenodd" fill="#F3A51D" d="M303.096,356.105L303.096,356.105
		c1.104,0,2.008,0.906,2.008,2.008v6.068c0,1.102-0.904,2.008-2.008,2.008l0,0c-1.104,0-2.008-0.903-2.008-2.008v-6.068
		C301.088,357.008,301.992,356.105,303.096,356.105L303.096,356.105z"/>
	<path fill-rule="evenodd" clip-rule="evenodd" fill="#2E3192" d="M303.096,368.592L303.096,368.592
		c1.104,0,2.008,0.903,2.008,2.008v8.062l-3.927-0.461l-0.089,0.019v-7.62C301.088,369.495,301.992,368.592,303.096,368.592
		L303.096,368.592z"/>
	<path fill-rule="evenodd" clip-rule="evenodd" fill="#939598" d="M376.122,414.244l5.415-10.019l3.876,7.765v18.773l-9.196,2.652
		v-19.182L376.122,414.244L376.122,414.244z M275.643,438.754c1.65,0.971,3.001,2.303,4.006,3.941
		c1.002,1.636,1.483,3.472,1.601,5.361c0.756-0.56,1.559-1.056,2.406-1.492c2.267-1.163,4.734-1.691,7.275-1.691
		c1.283,0,2.56,0.155,3.796,0.503c1.327,0.372,2.564,0.975,3.65,1.827c0.594,0.466,1.125,0.995,1.588,1.58
		c0.368-0.37,0.762-0.715,1.183-1.036c1.296-0.99,2.759-1.704,4.317-2.177c1.587-0.482,3.234-0.697,4.89-0.697
		c0.607,0,1.215,0.029,1.819,0.077c0.649,0.051,1.294,0.127,1.938,0.226c0.741,0.113,1.473,0.276,2.191,0.49
		c0.331,0.099,0.657,0.21,0.98,0.334l3.053-0.554c1.176-0.214,2.37-0.323,3.565-0.323c1.137,0,2.277,0.123,3.396,0.315l1.883,0.322
		c1.534-0.6,3.167-0.887,4.851-0.887c3.207,0,6.086,1.206,8.077,3.754c0.37,0.472,0.691,0.969,0.967,1.485
		c1.217-1.355,2.646-2.487,4.254-3.387c2.321-1.3,4.897-1.852,7.543-1.852c3.452,0,6.83,0.877,9.304,3.333l-0.222-1.998l4.192-0.761
		c1.177-0.214,2.37-0.323,3.567-0.323c0.569,0,1.139,0.027,1.706,0.084c0.558,0.056,1.114,0.137,1.666,0.234l2.02,0.354
		c0.334-0.13,0.675-0.248,1.019-0.353c1.154-0.349,2.347-0.528,3.551-0.528c2.57,0,5.039,0.703,6.97,2.46
		c0.632,0.575,1.14,1.221,1.545,1.92c0.496-0.566,1.052-1.083,1.661-1.548c1.296-0.99,2.759-1.704,4.317-2.177
		c1.587-0.482,3.234-0.697,4.89-0.697c0.606,0,1.214,0.029,1.819,0.077c0.648,0.051,1.295,0.127,1.937,0.226
		c1.861,0.285,2.896,0.723,4.603,1.381c0.014-0.595,0.057-2.371,0.13-2.961c-6.185-1.786-14.173-3.317-23.229-4.566v-25.226
		l0.316,0.632l1.488,0.307l-6.027-11.864l-10.603,1.945l-6.151,10.238V429.3l-3.914,1.401v-15.554l9.704-16.132l2.106,4.219
		l1.858-0.348l-3.066-6.035l-8.385,1.539l-1.876,0.344v5.678l-2.497,2.576v-7.796v-4.75l-2.286,0.618v4.234v0.317l-2.026,0.373
		l-6.621,9.589v-36.544l-11.276-2.992l-16.568,3.222v43.951h-3.235v-27.153h-3.214v-5.647l-12.65-1.485l-7.594,1.61v8.107
		l-3.777,0.638c-0.118,14.551-0.028,28.875-0.005,43.394C284.659,437.214,279.802,437.904,275.643,438.754L275.643,438.754z
		 M356.267,422.977l-5.76-0.176v-4.862l5.76-0.402V422.977L356.267,422.977z M346.047,412.89l-2.469,3.574l2.469-0.182v5.286
		l-8.39,1.898v-50.304l8.39,1.936V412.89L346.047,412.89z M323.992,377.077l4.015-0.732v5.81l-4.015,0.253V377.077L323.992,377.077z
		 M328.007,384.768v5.546l-4.015,0.183v-5.544L328.007,384.768L328.007,384.768z M328.007,392.927v5.761l-4.015,0.115v-5.76
		L328.007,392.927L328.007,392.927z M328.007,401.301v5.428l-4.015-0.022v-5.36L328.007,401.301L328.007,401.301z M328.007,409.343
		v5.255l-4.015-0.09v-5.256L328.007,409.343L328.007,409.343z M328.007,417.212v5.33l-4.015-0.654v-4.835L328.007,417.212
		L328.007,417.212z M330.092,376.052l4.015-0.731v6.452l-4.015,0.252V376.052L330.092,376.052z M334.107,384.49v5.545l-4.015,0.184
		v-5.545L334.107,384.49L334.107,384.49z M334.107,392.753v5.76l-4.015,0.115v-5.76L334.107,392.753L334.107,392.753z
		 M334.107,401.23v5.534l-4.015-0.022v-5.464L334.107,401.23L334.107,401.23z M334.107,409.48v5.255l-4.015-0.09v-5.255
		L334.107,409.48L334.107,409.48z M334.107,417.455v6.113l-4.015-0.655v-5.618L334.107,417.455L334.107,417.455z M314.795,392.391
		v38.151l-7.699,3.066v-42.556l-4.338,0.331v-5.485l9.103,0.892v5.466L314.795,392.391L314.795,392.391z M299.494,394.978
		l4.015-0.282v38.654l-4.015-0.655V394.978L299.494,394.978z M292.868,395.892l4.016-0.283v36.609l-4.016-0.655V395.892
		L292.868,395.892z"/>
	<path fill-rule="evenodd" clip-rule="evenodd" d="M384.307,381.923L384.307,381.923c1.104,0,2.008,0.904,2.008,2.008v16.959
		l-1.638-3.226l-2.377,0.436v-14.17C382.299,382.826,383.203,381.923,384.307,381.923L384.307,381.923z"/>
	<path fill-rule="evenodd" clip-rule="evenodd" fill="#F3A51D" d="M371.687,366.703L371.687,366.703
		c1.104,0,2.008,0.904,2.008,2.008v23.092l-4.016,0.736v-23.828C369.679,367.607,370.583,366.703,371.687,366.703L371.687,366.703z"
		/>
	<path fill-rule="evenodd" clip-rule="evenodd" d="M371.687,335.231L371.687,335.231c1.104,0,2.008,0.905,2.008,2.008v20.507
		c0,1.103-0.903,2.008-2.008,2.008l0,0c-1.104,0-2.008-0.903-2.008-2.008v-20.507C369.679,336.135,370.583,335.231,371.687,335.231
		L371.687,335.231z"/>
	<path fill-rule="evenodd" clip-rule="evenodd" d="M291.882,358.837L291.882,358.837c1.104,0,2.008,0.903,2.008,2.008v1.581
		c0,1.104-0.903,2.008-2.008,2.008l0,0c-1.104,0-2.008-0.904-2.008-2.008v-1.581C289.874,359.74,290.778,358.837,291.882,358.837
		L291.882,358.837z"/>
	<path fill-rule="evenodd" clip-rule="evenodd" fill="#F3A51D" d="M359.168,374.765L359.168,374.765
		c1.104,0,2.008,0.903,2.008,2.008v0.852c0,1.104-0.903,2.008-2.008,2.008l0,0c-1.104,0-2.008-0.903-2.008-2.008v-0.852
		C357.16,375.669,358.063,374.765,359.168,374.765L359.168,374.765z"/>
	<path fill-rule="evenodd" clip-rule="evenodd" fill="#939598" d="M359.168,381.923L359.168,381.923
		c1.104,0,2.008,0.906,2.008,2.008v6.067c0,1.102-0.903,2.008-2.008,2.008l0,0c-1.104,0-2.008-0.903-2.008-2.008v-6.067
		C357.16,382.826,358.063,381.923,359.168,381.923L359.168,381.923z"/>
	<path fill-rule="evenodd" clip-rule="evenodd" fill="#31B44E" d="M359.168,381.923L359.168,381.923
		c1.104,0,2.008,0.906,2.008,2.008v6.067c0,1.102-0.903,2.008-2.008,2.008l0,0c-1.104,0-2.008-0.903-2.008-2.008v-6.067
		C357.16,382.826,358.063,381.923,359.168,381.923L359.168,381.923z"/>
	<path fill-rule="evenodd" clip-rule="evenodd" fill="#ED1C24" d="M315.251,365.521L315.251,365.521
		c1.104,0,2.008,0.908,2.008,2.008v9.656c0,1.099-0.903,2.008-2.008,2.008l0,0c-1.104,0-2.008-0.903-2.008-2.008v-9.656
		C313.243,366.425,314.147,365.521,315.251,365.521L315.251,365.521z"/>
	<path fill-rule="evenodd" clip-rule="evenodd" fill="#F3A51D" d="M329.421,360.203L329.421,360.203
		c1.104,0,2.008,0.903,2.008,2.008v0.852c0,1.104-0.903,2.008-2.008,2.008l0,0c-1.104,0-2.008-0.903-2.008-2.008v-0.852
		C327.413,361.106,328.317,360.203,329.421,360.203L329.421,360.203z"/>
	<path d="M279.512,203.347c1.048-0.119,2.03-0.221,2.947-0.304c0.917-0.083,1.935-0.125,3.054-0.125c1.31,0,2.602,0.119,3.876,0.357
		c1.274,0.238,2.423,0.661,3.447,1.268c1.024,0.607,1.852,1.429,2.483,2.465c0.631,1.036,0.947,2.352,0.947,3.947
		c0,0.952-0.119,1.792-0.357,2.518c-0.238,0.727-0.542,1.363-0.911,1.911c-0.369,0.548-0.768,1.018-1.197,1.411
		c-0.429,0.393-0.834,0.709-1.215,0.947l-0.607,0.393l6.251,10.86c-0.476,0.048-0.977,0.095-1.5,0.143
		c-0.524,0.048-1.06,0.071-1.608,0.071c-0.905,0-1.798-0.071-2.679-0.214l-6.716-11.931l0.857-0.429
		c0.333-0.167,0.738-0.381,1.214-0.643c0.476-0.262,0.935-0.59,1.375-0.983c0.441-0.393,0.816-0.869,1.125-1.429
		c0.31-0.56,0.464-1.22,0.464-1.983c0-1.5-0.429-2.602-1.286-3.304c-0.857-0.702-1.965-1.054-3.322-1.054
		c-0.524,0-1,0.036-1.429,0.107v21.683c-0.429,0.048-0.857,0.089-1.286,0.125c-0.429,0.036-0.846,0.054-1.25,0.054
		c-0.405,0-0.833-0.012-1.286-0.036c-0.452-0.024-0.917-0.071-1.393-0.143V203.347L279.512,203.347z"/>
	<path d="M301.087,203.347h14.575c0.143,0.714,0.214,1.441,0.214,2.179c0,0.786-0.071,1.536-0.214,2.25h-9.359v5.573h7.43
		c0.143,0.762,0.215,1.5,0.215,2.215c0,0.762-0.071,1.512-0.215,2.251h-7.43v6.787h9.609c0.143,0.714,0.214,1.441,0.214,2.179
		c0,0.786-0.071,1.536-0.214,2.25h-14.825V203.347L301.087,203.347z"/>
	<path d="M324.736,217.136c-0.81-0.31-1.536-0.649-2.179-1.018c-0.643-0.369-1.191-0.81-1.643-1.322
		c-0.452-0.512-0.804-1.125-1.054-1.84s-0.375-1.572-0.375-2.572c0-1.215,0.208-2.286,0.625-3.215
		c0.417-0.929,1.006-1.709,1.768-2.34c0.762-0.631,1.679-1.107,2.751-1.429c1.072-0.322,2.274-0.482,3.608-0.482
		c1.215,0,2.352,0.107,3.412,0.322c1.06,0.214,2.173,0.524,3.34,0.929c-0.143,1.381-0.524,2.739-1.143,4.072
		c-0.357-0.143-0.72-0.286-1.089-0.429c-0.369-0.143-0.762-0.262-1.179-0.357c-0.417-0.095-0.887-0.173-1.411-0.232
		c-0.524-0.06-1.119-0.089-1.786-0.089c-0.405,0-0.815,0.036-1.233,0.107c-0.417,0.071-0.792,0.202-1.125,0.393
		c-0.333,0.19-0.607,0.47-0.822,0.839c-0.214,0.369-0.321,0.852-0.321,1.447c0,0.477,0.083,0.875,0.25,1.197
		c0.167,0.321,0.393,0.595,0.679,0.822c0.286,0.226,0.607,0.417,0.964,0.572c0.357,0.155,0.715,0.304,1.072,0.446l2.143,0.822
		c0.905,0.357,1.727,0.726,2.465,1.107c0.738,0.381,1.363,0.852,1.875,1.411c0.512,0.56,0.911,1.238,1.197,2.036
		s0.429,1.78,0.429,2.947c0,1.214-0.22,2.322-0.661,3.322c-0.441,1-1.078,1.858-1.911,2.572c-0.834,0.714-1.864,1.274-3.09,1.679
		c-1.227,0.405-2.637,0.607-4.233,0.607c-0.786,0-1.488-0.024-2.108-0.071c-0.619-0.048-1.209-0.125-1.768-0.232
		c-0.56-0.107-1.113-0.244-1.661-0.411c-0.548-0.167-1.119-0.369-1.715-0.607c0.071-0.691,0.202-1.411,0.393-2.161
		c0.19-0.75,0.417-1.506,0.679-2.268c1,0.405,1.941,0.708,2.822,0.911c0.881,0.202,1.822,0.304,2.822,0.304
		c1.5,0,2.679-0.28,3.537-0.84c0.857-0.56,1.286-1.411,1.286-2.554c0-0.572-0.101-1.048-0.304-1.429
		c-0.202-0.381-0.464-0.702-0.786-0.965c-0.322-0.262-0.685-0.482-1.09-0.661c-0.405-0.179-0.822-0.351-1.25-0.518L324.736,217.136
		L324.736,217.136z"/>
	<path d="M339.703,203.24c1.096-0.095,2.203-0.173,3.322-0.232c1.119-0.06,2.251-0.089,3.394-0.089c1.191,0,2.4,0.119,3.626,0.357
		c1.227,0.238,2.334,0.685,3.322,1.339c0.988,0.655,1.792,1.566,2.411,2.733c0.619,1.167,0.929,2.679,0.929,4.537
		c0,1.858-0.31,3.364-0.929,4.519c-0.619,1.155-1.417,2.066-2.393,2.733c-0.976,0.667-2.066,1.119-3.269,1.358
		c-1.202,0.238-2.387,0.357-3.554,0.357c-0.31,0-0.601-0.006-0.875-0.018c-0.274-0.012-0.53-0.03-0.768-0.054v8.252
		c-0.452,0.071-0.893,0.119-1.322,0.143c-0.429,0.024-0.846,0.036-1.25,0.036c-0.381,0-0.798-0.012-1.25-0.036
		c-0.452-0.024-0.917-0.071-1.393-0.143V203.24L339.703,203.24z M344.919,216.457c0.286,0.048,0.554,0.071,0.804,0.071
		c0.25,0,0.554,0,0.911,0c0.596,0,1.179-0.077,1.75-0.232c0.572-0.155,1.078-0.411,1.518-0.768c0.44-0.357,0.792-0.827,1.054-1.411
		c0.262-0.584,0.393-1.304,0.393-2.161c0-0.881-0.131-1.625-0.393-2.233c-0.262-0.607-0.613-1.095-1.054-1.465
		c-0.441-0.369-0.947-0.631-1.518-0.786c-0.571-0.155-1.155-0.232-1.75-0.232c-0.262,0-0.506,0.006-0.732,0.018
		c-0.226,0.012-0.554,0.042-0.982,0.089V216.457L344.919,216.457z"/>
	<path d="M370.996,229.46c-1.929,0-3.596-0.333-5.001-1c-1.405-0.667-2.56-1.59-3.465-2.769c-0.905-1.179-1.578-2.572-2.019-4.179
		c-0.44-1.608-0.661-3.364-0.661-5.269s0.22-3.673,0.661-5.305c0.441-1.631,1.113-3.042,2.019-4.233
		c0.905-1.191,2.06-2.119,3.465-2.786c1.405-0.667,3.072-1,5.001-1s3.596,0.334,5.001,1c1.405,0.667,2.56,1.596,3.465,2.786
		c0.905,1.191,1.578,2.602,2.018,4.233c0.44,1.631,0.661,3.4,0.661,5.305s-0.221,3.661-0.661,5.269
		c-0.441,1.608-1.113,3-2.018,4.179c-0.905,1.179-2.06,2.102-3.465,2.769C374.592,229.126,372.925,229.46,370.996,229.46
		L370.996,229.46z M370.996,225.102c3.691,0,5.537-2.953,5.537-8.859c0-2.953-0.446-5.168-1.339-6.644
		c-0.893-1.477-2.28-2.215-4.162-2.215c-3.739,0-5.608,2.953-5.608,8.859C365.423,222.149,367.281,225.102,370.996,225.102
		L370.996,225.102z"/>
	<path d="M386.464,203.347c0.738-0.143,1.441-0.215,2.108-0.215c0.714,0,1.452,0.072,2.215,0.215l9.931,16.361v-16.361
		c0.858-0.143,1.679-0.215,2.465-0.215c0.738,0,1.453,0.072,2.143,0.215v25.684c-0.762,0.143-1.453,0.214-2.072,0.214
		c-0.667,0-1.393-0.071-2.179-0.214l-10.002-16.325v16.325c-0.762,0.143-1.536,0.214-2.322,0.214c-0.786,0-1.548-0.071-2.286-0.214
		V203.347L386.464,203.347z"/>
	<path d="M415.006,217.136c-0.81-0.31-1.536-0.649-2.179-1.018c-0.643-0.369-1.191-0.81-1.643-1.322
		c-0.452-0.512-0.804-1.125-1.054-1.84c-0.25-0.714-0.375-1.572-0.375-2.572c0-1.215,0.208-2.286,0.625-3.215
		c0.417-0.929,1.006-1.709,1.768-2.34c0.762-0.631,1.679-1.107,2.751-1.429c1.072-0.322,2.274-0.482,3.608-0.482
		c1.215,0,2.352,0.107,3.411,0.322c1.06,0.214,2.173,0.524,3.34,0.929c-0.143,1.381-0.524,2.739-1.143,4.072
		c-0.357-0.143-0.72-0.286-1.089-0.429c-0.369-0.143-0.762-0.262-1.179-0.357c-0.417-0.095-0.887-0.173-1.411-0.232
		c-0.524-0.06-1.119-0.089-1.786-0.089c-0.405,0-0.816,0.036-1.233,0.107c-0.417,0.071-0.792,0.202-1.125,0.393
		c-0.333,0.19-0.607,0.47-0.822,0.839c-0.214,0.369-0.321,0.852-0.321,1.447c0,0.477,0.083,0.875,0.25,1.197
		c0.167,0.321,0.393,0.595,0.679,0.822c0.286,0.226,0.607,0.417,0.964,0.572c0.357,0.155,0.715,0.304,1.072,0.446l2.143,0.822
		c0.905,0.357,1.727,0.726,2.465,1.107c0.738,0.381,1.363,0.852,1.875,1.411c0.512,0.56,0.911,1.238,1.197,2.036
		c0.286,0.798,0.429,1.78,0.429,2.947c0,1.214-0.22,2.322-0.661,3.322c-0.44,1-1.078,1.858-1.911,2.572
		c-0.834,0.714-1.863,1.274-3.09,1.679c-1.227,0.405-2.637,0.607-4.233,0.607c-0.786,0-1.488-0.024-2.108-0.071
		c-0.619-0.048-1.209-0.125-1.768-0.232c-0.56-0.107-1.113-0.244-1.661-0.411c-0.548-0.167-1.119-0.369-1.715-0.607
		c0.071-0.691,0.202-1.411,0.393-2.161c0.191-0.75,0.417-1.506,0.679-2.268c1,0.405,1.941,0.708,2.822,0.911
		c0.881,0.202,1.822,0.304,2.822,0.304c1.5,0,2.679-0.28,3.536-0.84c0.857-0.56,1.286-1.411,1.286-2.554
		c0-0.572-0.101-1.048-0.304-1.429c-0.202-0.381-0.464-0.702-0.786-0.965c-0.322-0.262-0.685-0.482-1.09-0.661
		c-0.405-0.179-0.822-0.351-1.25-0.518L415.006,217.136L415.006,217.136z"/>
	<path d="M429.973,203.347c0.881-0.143,1.75-0.215,2.608-0.215c0.857,0,1.739,0.072,2.643,0.215v25.684
		c-0.905,0.143-1.774,0.214-2.608,0.214c-0.881,0-1.762-0.071-2.644-0.214V203.347L429.973,203.347z"/>
	<path d="M438.082,203.347c0.405-0.048,0.869-0.095,1.393-0.143c0.524-0.048,0.988-0.072,1.393-0.072
		c0.905,0,1.858,0.072,2.858,0.215l5.609,20.254l5.68-20.254c0.476-0.071,0.935-0.119,1.375-0.143
		c0.441-0.024,0.887-0.036,1.34-0.036c0.429,0,0.863,0.012,1.304,0.036c0.44,0.024,0.899,0.071,1.375,0.143l-8.288,25.684
		c-0.5,0.071-0.982,0.125-1.447,0.161c-0.464,0.036-0.958,0.054-1.483,0.054c-0.476,0-0.941-0.018-1.393-0.054
		c-0.453-0.036-0.953-0.089-1.5-0.161L438.082,203.347L438.082,203.347z"/>
	<path d="M463.267,203.347h14.575c0.143,0.714,0.214,1.441,0.214,2.179c0,0.786-0.071,1.536-0.214,2.25h-9.359v5.573h7.43
		c0.143,0.762,0.215,1.5,0.215,2.215c0,0.762-0.071,1.512-0.215,2.251h-7.43v6.787h9.609c0.143,0.714,0.214,1.441,0.214,2.179
		c0,0.786-0.071,1.536-0.214,2.25h-14.825V203.347L463.267,203.347z"/>
	<path d="M507.062,224.173c0.31,0.667,0.566,1.352,0.768,2.054c0.202,0.703,0.352,1.411,0.447,2.126
		c-1.239,0.452-2.352,0.75-3.34,0.893c-0.988,0.143-2.054,0.214-3.197,0.214c-2.024,0-3.798-0.327-5.323-0.982
		c-1.524-0.655-2.804-1.572-3.84-2.751c-1.036-1.179-1.816-2.578-2.34-4.197c-0.524-1.619-0.786-3.382-0.786-5.287
		s0.274-3.673,0.822-5.305c0.548-1.631,1.339-3.042,2.375-4.233c1.036-1.191,2.31-2.119,3.822-2.786c1.512-0.667,3.233-1,5.162-1
		c1.143,0,2.197,0.071,3.161,0.214c0.964,0.143,2.006,0.441,3.126,0.893c-0.048,0.714-0.19,1.411-0.429,2.09
		c-0.238,0.679-0.5,1.363-0.786,2.054c-0.834-0.286-1.572-0.488-2.215-0.607c-0.643-0.119-1.405-0.179-2.286-0.179
		c-2.286,0-4.043,0.744-5.269,2.233c-1.226,1.488-1.84,3.697-1.84,6.627c0,5.811,2.465,8.716,7.394,8.716
		c0.881,0,1.655-0.06,2.322-0.179C505.478,224.661,506.229,224.459,507.062,224.173L507.062,224.173z"/>
	<path d="M512.17,203.347c0.881-0.143,1.75-0.215,2.608-0.215c0.857,0,1.738,0.072,2.643,0.215v25.684
		c-0.905,0.143-1.774,0.214-2.608,0.214c-0.881,0-1.762-0.071-2.644-0.214V203.347L512.17,203.347z"/>
	<path d="M527.424,207.776h-6.394c-0.143-0.714-0.214-1.465-0.214-2.25c0-0.738,0.071-1.465,0.214-2.179h18.04
		c0.143,0.714,0.214,1.441,0.214,2.179c0,0.786-0.071,1.536-0.214,2.25h-6.394v21.255c-0.429,0.048-0.857,0.089-1.286,0.125
		c-0.429,0.036-0.845,0.054-1.25,0.054c-0.405,0-0.84-0.012-1.304-0.036c-0.464-0.024-0.935-0.071-1.411-0.143V207.776
		L527.424,207.776z"/>
	<path d="M542.677,203.347c0.881-0.143,1.75-0.215,2.608-0.215c0.857,0,1.739,0.072,2.643,0.215v25.684
		c-0.905,0.143-1.774,0.214-2.608,0.214c-0.881,0-1.762-0.071-2.643-0.214V203.347L542.677,203.347z"/>
	<path d="M552.929,203.347h14.575c0.143,0.714,0.214,1.441,0.214,2.179c0,0.786-0.071,1.536-0.214,2.25h-9.359v5.573h7.43
		c0.143,0.762,0.215,1.5,0.215,2.215c0,0.762-0.071,1.512-0.215,2.251h-7.43v6.787h9.609c0.143,0.714,0.214,1.441,0.214,2.179
		c0,0.786-0.071,1.536-0.214,2.25h-14.825V203.347L552.929,203.347z"/>
	<path d="M576.578,217.136c-0.81-0.31-1.536-0.649-2.179-1.018c-0.643-0.369-1.191-0.81-1.643-1.322
		c-0.453-0.512-0.804-1.125-1.054-1.84s-0.375-1.572-0.375-2.572c0-1.215,0.208-2.286,0.625-3.215
		c0.417-0.929,1.006-1.709,1.768-2.34c0.762-0.631,1.679-1.107,2.751-1.429c1.072-0.322,2.274-0.482,3.608-0.482
		c1.215,0,2.352,0.107,3.411,0.322c1.06,0.214,2.173,0.524,3.34,0.929c-0.143,1.381-0.524,2.739-1.143,4.072
		c-0.357-0.143-0.72-0.286-1.089-0.429c-0.369-0.143-0.762-0.262-1.179-0.357c-0.417-0.095-0.887-0.173-1.411-0.232
		c-0.524-0.06-1.119-0.089-1.786-0.089c-0.405,0-0.816,0.036-1.232,0.107c-0.417,0.071-0.792,0.202-1.125,0.393
		c-0.333,0.19-0.607,0.47-0.822,0.839c-0.214,0.369-0.321,0.852-0.321,1.447c0,0.477,0.083,0.875,0.25,1.197
		c0.167,0.321,0.393,0.595,0.679,0.822c0.286,0.226,0.607,0.417,0.964,0.572c0.357,0.155,0.715,0.304,1.072,0.446l2.143,0.822
		c0.905,0.357,1.727,0.726,2.465,1.107c0.738,0.381,1.363,0.852,1.875,1.411c0.512,0.56,0.911,1.238,1.197,2.036
		c0.286,0.798,0.429,1.78,0.429,2.947c0,1.214-0.22,2.322-0.661,3.322c-0.441,1-1.078,1.858-1.911,2.572
		c-0.834,0.714-1.864,1.274-3.09,1.679c-1.227,0.405-2.637,0.607-4.233,0.607c-0.786,0-1.488-0.024-2.108-0.071
		c-0.619-0.048-1.209-0.125-1.768-0.232c-0.56-0.107-1.113-0.244-1.661-0.411c-0.548-0.167-1.119-0.369-1.715-0.607
		c0.072-0.691,0.203-1.411,0.393-2.161c0.19-0.75,0.417-1.506,0.679-2.268c1,0.405,1.941,0.708,2.822,0.911
		c0.881,0.202,1.822,0.304,2.822,0.304c1.5,0,2.679-0.28,3.536-0.84c0.858-0.56,1.286-1.411,1.286-2.554
		c0-0.572-0.101-1.048-0.304-1.429c-0.202-0.381-0.464-0.702-0.786-0.965c-0.322-0.262-0.685-0.482-1.09-0.661
		s-0.822-0.351-1.25-0.518L576.578,217.136L576.578,217.136z"/>
	<path d="M291.845,237.286l-0.088,1.94c-0.62-0.254-1.22-0.447-1.813-0.574c-0.589-0.127-1.189-0.188-1.798-0.188
		c-1.924,0-3.449,0.562-4.581,1.686c-1.132,1.124-1.698,2.64-1.698,4.55c0,1.932,0.562,3.449,1.69,4.554
		c1.128,1.105,2.664,1.659,4.611,1.659c0.616,0,1.22-0.058,1.805-0.177c0.585-0.116,1.162-0.289,1.736-0.516l0.065,2.009
		c-0.554,0.181-1.147,0.319-1.778,0.412c-0.631,0.096-1.301,0.142-2.01,0.142c-2.621,0-4.688-0.712-6.205-2.136
		c-1.513-1.428-2.271-3.368-2.271-5.828c0-2.491,0.774-4.473,2.317-5.947c1.543-1.474,3.618-2.209,6.228-2.209
		c0.7,0,1.367,0.05,2.002,0.154C290.694,236.916,291.291,237.074,291.845,237.286L291.845,237.286z"/>
	<polygon points="306.629,236.709 308.869,236.709 308.869,243.498 316.144,243.498 316.144,236.709 318.384,236.709 
		318.384,252.736 316.144,252.736 316.144,245.323 308.869,245.323 308.869,252.736 306.629,252.736 306.629,236.709 	"/>
	<path d="M340.382,238.671l-3.18,8.153h6.259L340.382,238.671L340.382,238.671z M339.062,236.709h2.729l6.282,16.028h-2.425
		l-1.543-4.111h-7.625l-1.543,4.111h-2.267L339.062,236.709L339.062,236.709z"/>
	<polygon points="362.01,236.709 364.25,236.709 364.25,250.866 370.648,250.866 370.648,252.736 362.01,252.736 362.01,236.709 	
		"/>
	<polygon points="384.947,236.709 387.187,236.709 387.187,250.866 393.585,250.866 393.585,252.736 384.947,252.736 
		384.947,236.709 	"/>
	<polygon points="407.884,236.709 416.564,236.709 416.564,238.44 410.124,238.44 410.124,243.521 416.221,243.521 416.221,245.323 
		410.124,245.323 410.124,250.889 416.775,250.889 416.775,252.736 407.884,252.736 407.884,236.709 	"/>
	<path d="M432.445,236.709h2.822l6.971,12.475c0.096,0.181,0.215,0.458,0.354,0.828c0.139,0.373,0.285,0.812,0.435,1.316
		c-0.096-0.589-0.173-1.116-0.227-1.586c-0.05-0.469-0.077-0.874-0.077-1.212v-11.821h2.055v16.028h-2.745l-7.094-12.587
		c-0.088-0.15-0.196-0.404-0.327-0.762c-0.127-0.358-0.269-0.824-0.427-1.393c0.112,0.858,0.192,1.521,0.242,1.986
		c0.05,0.466,0.073,0.801,0.073,1.005v11.752h-2.055V236.709L432.445,236.709z"/>
	<path d="M473.192,237.424l-0.327,1.894c-0.608-0.308-1.247-0.539-1.913-0.693c-0.67-0.154-1.355-0.231-2.052-0.231
		c-1.932,0-3.476,0.585-4.638,1.756c-1.159,1.166-1.74,2.714-1.74,4.642c0,1.894,0.581,3.407,1.74,4.538
		c1.162,1.132,2.718,1.698,4.661,1.698c0.443,0,0.878-0.039,1.297-0.112c0.42-0.077,0.835-0.192,1.24-0.35v-4.873h-3.349v-1.755
		h5.52v8.037c-0.743,0.277-1.524,0.485-2.341,0.624c-0.816,0.139-1.67,0.208-2.563,0.208c-2.633,0-4.715-0.723-6.255-2.171
		c-1.536-1.447-2.305-3.414-2.305-5.897c0-2.464,0.777-4.431,2.329-5.897c1.551-1.467,3.645-2.202,6.274-2.202
		c0.747,0,1.486,0.065,2.225,0.192C471.729,236.962,472.464,237.158,473.192,237.424L473.192,237.424z"/>
	<polygon points="489.55,236.709 498.23,236.709 498.23,238.44 491.79,238.44 491.79,243.521 497.888,243.521 497.888,245.323 
		491.79,245.323 491.79,250.889 498.442,250.889 498.442,252.736 489.55,252.736 489.55,236.709 	"/>
	<path d="M259.252,441.558c1.167-0.222,2.244-0.368,3.23-0.438c0.987-0.069,1.994-0.104,3.022-0.104
		c1.417,0,2.793,0.118,4.127,0.354c1.334,0.236,2.529,0.653,3.585,1.251c1.056,0.597,1.903,1.417,2.543,2.459
		c0.639,1.042,0.959,2.355,0.959,3.939c0,1.278-0.188,2.432-0.563,3.46c-0.375,1.028-0.848,1.952-1.417,2.772
		c-0.57,0.819-1.188,1.514-1.855,2.084c-0.667,0.57-1.306,1.035-1.917,1.396l-0.5,0.292l4.46,12.463
		c-1.167,0.167-2.293,0.25-3.376,0.25c-1.084,0-2.098-0.083-3.043-0.25l-4.627-13.922l0.708-0.417
		c0.417-0.25,0.959-0.549,1.626-0.896c0.667-0.348,1.32-0.806,1.959-1.376c0.639-0.569,1.188-1.257,1.647-2.063
		c0.458-0.806,0.688-1.778,0.688-2.918c0-0.723-0.125-1.327-0.375-1.813c-0.25-0.486-0.59-0.882-1.021-1.188
		c-0.431-0.306-0.924-0.521-1.48-0.646c-0.556-0.125-1.126-0.188-1.709-0.188c-0.584,0-1.056,0.042-1.417,0.125l-4.46,25.301
		c-0.556,0.056-1.077,0.104-1.563,0.146c-0.486,0.042-0.965,0.062-1.438,0.062c-0.444,0-0.931-0.014-1.459-0.042
		c-0.528-0.028-1.056-0.083-1.584-0.167L259.252,441.558L259.252,441.558z"/>
	<path d="M284.261,463.317c0.167,1.334,0.611,2.327,1.334,2.98c0.723,0.653,1.778,0.979,3.168,0.979
		c1.111,0,2.091-0.118,2.939-0.354c0.848-0.236,1.744-0.549,2.688-0.938c0.445,0.556,0.743,1.23,0.896,2.022
		c0.153,0.792,0.229,1.632,0.229,2.522c-0.472,0.222-1.021,0.424-1.646,0.604c-0.625,0.181-1.271,0.333-1.938,0.459
		c-0.667,0.125-1.334,0.222-2.001,0.292c-0.667,0.069-1.264,0.104-1.792,0.104c-1.695,0-3.147-0.209-4.356-0.625
		c-1.209-0.417-2.209-1.007-3.001-1.772c-0.792-0.764-1.376-1.695-1.751-2.793c-0.375-1.098-0.563-2.313-0.563-3.647
		c0-1.695,0.292-3.362,0.875-5.002c0.583-1.64,1.41-3.105,2.48-4.397c1.07-1.292,2.376-2.334,3.918-3.126
		c1.542-0.792,3.272-1.188,5.189-1.188c0.917,0,1.772,0.111,2.564,0.333c0.792,0.222,1.48,0.563,2.063,1.021
		c0.584,0.458,1.042,1.021,1.376,1.688c0.333,0.667,0.5,1.445,0.5,2.334c0,1.25-0.292,2.334-0.875,3.251
		c-0.584,0.917-1.362,1.695-2.334,2.334c-0.973,0.639-2.077,1.16-3.314,1.563c-1.237,0.403-2.522,0.702-3.856,0.896L284.261,463.317
		L284.261,463.317z M286.637,459.065c1.056-0.167,1.917-0.382,2.584-0.646c0.667-0.264,1.195-0.556,1.584-0.875
		c0.389-0.319,0.653-0.646,0.792-0.979c0.139-0.334,0.208-0.667,0.208-1.001c0-0.528-0.173-0.959-0.521-1.292
		c-0.347-0.333-0.813-0.5-1.396-0.5c-0.723,0-1.382,0.16-1.98,0.479c-0.597,0.32-1.118,0.744-1.563,1.271
		c-0.444,0.528-0.827,1.132-1.146,1.813c-0.319,0.681-0.563,1.369-0.729,2.063L286.637,459.065L286.637,459.065z"/>
	<path d="M305.144,461.983c-0.445-0.167-0.889-0.382-1.334-0.646c-0.444-0.264-0.854-0.597-1.23-1
		c-0.375-0.403-0.681-0.896-0.917-1.48c-0.236-0.584-0.354-1.278-0.354-2.084c0-1.167,0.229-2.202,0.688-3.105
		c0.458-0.903,1.098-1.667,1.917-2.293c0.82-0.625,1.779-1.104,2.876-1.438c1.098-0.333,2.286-0.5,3.564-0.5
		c0.445,0,0.931,0.021,1.459,0.062c0.528,0.042,1.063,0.104,1.605,0.188c0.542,0.083,1.07,0.202,1.584,0.354
		c0.514,0.153,0.98,0.34,1.396,0.563c-0.056,0.723-0.188,1.438-0.396,2.147c-0.208,0.709-0.549,1.424-1.021,2.147
		c-0.583-0.306-1.292-0.556-2.126-0.75s-1.626-0.292-2.376-0.292c-0.306,0-0.646,0.028-1.021,0.083
		c-0.375,0.056-0.729,0.153-1.063,0.292c-0.333,0.139-0.611,0.347-0.834,0.625c-0.222,0.278-0.333,0.625-0.333,1.042
		c0,0.834,0.528,1.486,1.584,1.959l1.625,0.709c0.528,0.222,1.042,0.479,1.542,0.771c0.5,0.292,0.945,0.646,1.334,1.063
		c0.389,0.417,0.702,0.903,0.938,1.459c0.236,0.556,0.354,1.209,0.354,1.959c0,1.389-0.278,2.591-0.834,3.605
		c-0.556,1.014-1.306,1.862-2.251,2.543c-0.945,0.681-2.063,1.188-3.356,1.521c-1.292,0.333-2.661,0.5-4.106,0.5
		c-0.889,0-1.876-0.09-2.959-0.271c-1.084-0.181-2.056-0.452-2.918-0.813c0.083-1.612,0.5-3.112,1.25-4.502
		c0.861,0.389,1.744,0.66,2.647,0.813c0.903,0.153,1.771,0.229,2.605,0.229c0.417,0,0.861-0.042,1.334-0.125
		c0.472-0.083,0.903-0.222,1.292-0.417c0.389-0.194,0.715-0.465,0.98-0.813c0.264-0.348,0.396-0.771,0.396-1.271
		c0-0.556-0.194-1.007-0.583-1.355c-0.389-0.348-0.931-0.66-1.626-0.938L305.144,461.983L305.144,461.983z"/>
	<path d="M324.818,466.86c0.222,0.083,0.507,0.139,0.854,0.167c0.348,0.028,0.702,0.042,1.063,0.042
		c1.223,0,2.272-0.285,3.147-0.854c0.875-0.57,1.598-1.292,2.167-2.168c0.57-0.875,0.986-1.841,1.251-2.897
		c0.264-1.056,0.396-2.084,0.396-3.085c0-0.973-0.202-1.813-0.605-2.522c-0.403-0.709-1.091-1.063-2.063-1.063
		c-1.278,0-2.376,0.542-3.293,1.626c-0.917,1.084-1.584,2.876-2.001,5.377L324.818,466.86L324.818,466.86z M320.275,459.19
		c0.306-1.751,0.535-3.3,0.688-4.647c0.153-1.348,0.229-2.397,0.229-3.147c0-0.306,0-0.563,0-0.771c0-0.208-0.014-0.438-0.042-0.688
		c0.917-0.167,1.834-0.25,2.751-0.25c0.778,0,1.653,0.083,2.626,0.25c0.056,0.222,0.111,0.486,0.167,0.792
		c0.056,0.306,0.083,0.764,0.083,1.376c0,0.25-0.007,0.486-0.021,0.708c-0.014,0.223-0.048,0.5-0.104,0.834
		c0.639-1.195,1.612-2.195,2.918-3.001c1.306-0.806,2.793-1.209,4.46-1.209c1.945,0,3.439,0.667,4.481,2.001
		c1.042,1.334,1.563,3.265,1.563,5.794c0,1.723-0.264,3.46-0.792,5.21c-0.528,1.751-1.369,3.335-2.522,4.752
		c-1.153,1.417-2.647,2.57-4.481,3.46c-1.834,0.889-4.071,1.334-6.711,1.334c-0.473,0-0.827-0.014-1.063-0.042
		c-0.236-0.028-0.424-0.056-0.563-0.084l-1.667,9.462c-0.556,0.111-1.084,0.181-1.584,0.208c-0.5,0.028-0.973,0.042-1.417,0.042
		c-0.473,0-0.945-0.014-1.417-0.042c-0.472-0.028-0.973-0.097-1.501-0.208L320.275,459.19L320.275,459.19z"/>
	<path d="M351.12,471.987c-2.862,0-4.967-0.75-6.315-2.251c-1.348-1.501-2.021-3.557-2.021-6.169c0-1.667,0.25-3.341,0.75-5.023
		c0.5-1.681,1.251-3.196,2.251-4.543c1-1.348,2.258-2.445,3.772-3.293c1.514-0.848,3.286-1.271,5.314-1.271
		c2.89,0,5.009,0.764,6.356,2.292c1.348,1.528,2.022,3.599,2.022,6.211c0,1.723-0.243,3.418-0.729,5.085
		c-0.486,1.667-1.23,3.168-2.23,4.502c-1,1.334-2.265,2.411-3.793,3.23C354.968,471.577,353.176,471.987,351.12,471.987
		L351.12,471.987z M351.661,467.485c1.056,0,1.945-0.334,2.668-1.001c0.723-0.667,1.313-1.494,1.772-2.48
		c0.458-0.986,0.785-2.028,0.979-3.126c0.195-1.098,0.292-2.091,0.292-2.98c0-2.557-1.042-3.835-3.126-3.835
		c-1.056,0-1.931,0.347-2.626,1.042c-0.694,0.695-1.264,1.542-1.709,2.543c-0.444,1-0.757,2.056-0.938,3.168
		c-0.181,1.111-0.271,2.098-0.271,2.959C348.702,466.248,349.688,467.485,351.661,467.485L351.661,467.485z"/>
	<path d="M368.084,459.19c0.306-1.751,0.535-3.3,0.688-4.647c0.153-1.348,0.229-2.397,0.229-3.147c0-0.306,0-0.563,0-0.771
		c0-0.208-0.014-0.438-0.042-0.688c0.917-0.167,1.834-0.25,2.751-0.25c0.417,0,0.834,0.021,1.25,0.063
		c0.417,0.042,0.861,0.104,1.334,0.187c0.056,0.222,0.111,0.486,0.167,0.792c0.056,0.306,0.083,0.764,0.083,1.376
		c0,0.25-0.007,0.5-0.021,0.75c-0.014,0.25-0.048,0.556-0.104,0.917c0.333-0.583,0.75-1.139,1.25-1.667
		c0.5-0.528,1.07-0.986,1.709-1.376c0.639-0.389,1.327-0.695,2.063-0.917c0.736-0.222,1.48-0.333,2.23-0.333
		c1.667,0,2.966,0.424,3.897,1.271s1.396,2.258,1.396,4.231c0,0.417-0.028,0.861-0.083,1.334c-0.056,0.473-0.125,0.973-0.209,1.501
		l-2.417,13.672c-1.056,0.167-2.07,0.25-3.043,0.25c-0.973,0-1.931-0.083-2.876-0.25l2.334-13.213
		c0.111-0.556,0.167-1.084,0.167-1.584c0-0.834-0.181-1.417-0.542-1.751c-0.361-0.334-0.875-0.5-1.542-0.5
		c-0.389,0-0.827,0.097-1.313,0.292c-0.486,0.194-0.98,0.604-1.48,1.229c-0.5,0.625-0.987,1.508-1.459,2.647
		c-0.473,1.139-0.875,2.64-1.209,4.502l-1.542,8.378c-1.084,0.167-2.098,0.25-3.043,0.25c-0.973,0-1.932-0.083-2.876-0.25
		L368.084,459.19L368.084,459.19z"/>
	<path d="M395.845,461.983c-0.445-0.167-0.889-0.382-1.334-0.646c-0.444-0.264-0.854-0.597-1.23-1
		c-0.375-0.403-0.681-0.896-0.917-1.48c-0.236-0.584-0.354-1.278-0.354-2.084c0-1.167,0.229-2.202,0.688-3.105
		c0.458-0.903,1.098-1.667,1.917-2.293c0.82-0.625,1.778-1.104,2.876-1.438c1.098-0.333,2.286-0.5,3.564-0.5
		c0.445,0,0.931,0.021,1.459,0.062c0.528,0.042,1.063,0.104,1.605,0.188c0.542,0.083,1.07,0.202,1.584,0.354
		c0.514,0.153,0.98,0.34,1.396,0.563c-0.056,0.723-0.188,1.438-0.396,2.147c-0.208,0.709-0.549,1.424-1.021,2.147
		c-0.583-0.306-1.292-0.556-2.126-0.75s-1.626-0.292-2.376-0.292c-0.306,0-0.646,0.028-1.021,0.083
		c-0.375,0.056-0.729,0.153-1.063,0.292c-0.333,0.139-0.611,0.347-0.834,0.625c-0.222,0.278-0.333,0.625-0.333,1.042
		c0,0.834,0.528,1.486,1.584,1.959l1.625,0.709c0.528,0.222,1.042,0.479,1.542,0.771c0.5,0.292,0.945,0.646,1.334,1.063
		c0.389,0.417,0.702,0.903,0.938,1.459c0.236,0.556,0.354,1.209,0.354,1.959c0,1.389-0.278,2.591-0.834,3.605
		c-0.556,1.014-1.306,1.862-2.251,2.543c-0.945,0.681-2.063,1.188-3.356,1.521c-1.292,0.333-2.661,0.5-4.106,0.5
		c-0.889,0-1.876-0.09-2.959-0.271c-1.084-0.181-2.056-0.452-2.918-0.813c0.083-1.612,0.5-3.112,1.25-4.502
		c0.861,0.389,1.744,0.66,2.647,0.813c0.903,0.153,1.771,0.229,2.605,0.229c0.417,0,0.861-0.042,1.334-0.125
		c0.472-0.083,0.903-0.222,1.292-0.417c0.389-0.194,0.715-0.465,0.98-0.813c0.264-0.348,0.396-0.771,0.396-1.271
		c0-0.556-0.194-1.007-0.583-1.355c-0.389-0.348-0.931-0.66-1.626-0.938L395.845,461.983L395.845,461.983z"/>
	<path d="M412.768,454.438h-2.626c0-0.083-0.007-0.167-0.021-0.25c-0.014-0.083-0.021-0.181-0.021-0.292
		c0-0.723,0.069-1.396,0.208-2.022c0.139-0.625,0.347-1.271,0.625-1.938h8.42l-3.793,21.55c-1.056,0.167-2.056,0.25-3.001,0.25
		c-0.861,0-1.792-0.083-2.793-0.25L412.768,454.438L412.768,454.438z M413.976,446.31c-0.028-0.973,0.035-1.896,0.188-2.772
		s0.396-1.799,0.729-2.772c0.5-0.111,1.028-0.188,1.584-0.229c0.556-0.042,1.056-0.062,1.501-0.062c0.444,0,0.938,0.021,1.48,0.062
		c0.542,0.042,1.049,0.118,1.521,0.229c0,0.973-0.083,1.903-0.25,2.793c-0.167,0.889-0.417,1.806-0.75,2.751
		c-0.5,0.083-1.021,0.139-1.563,0.167c-0.542,0.028-1.035,0.042-1.48,0.042c-0.417,0-0.903-0.014-1.459-0.042
		C414.921,446.449,414.421,446.394,413.976,446.31L413.976,446.31z"/>
	<path d="M422.563,449.937c1.028-0.167,2.057-0.25,3.085-0.25c1.111,0,2.195,0.083,3.251,0.25l1.626,15.798l4.71-10.171
		c0.611-1.306,0.993-2.355,1.146-3.147c0.153-0.792,0.229-1.466,0.229-2.021v-0.459c0.472-0.083,0.993-0.146,1.563-0.187
		c0.57-0.042,1.16-0.063,1.771-0.063c1.251,0,2.362,0.083,3.335,0.25v0.208c0,0.667-0.167,1.452-0.5,2.355
		c-0.334,0.903-0.903,2.091-1.709,3.564l-8.42,15.422c-0.556,0.083-1.125,0.139-1.709,0.167c-0.583,0.028-1.07,0.042-1.459,0.042
		c-0.389,0-0.91-0.007-1.563-0.021c-0.653-0.014-1.216-0.077-1.688-0.188L422.563,449.937L422.563,449.937z"/>
	<path d="M449.865,463.317c0.167,1.334,0.611,2.327,1.334,2.98c0.723,0.653,1.778,0.979,3.168,0.979
		c1.111,0,2.091-0.118,2.939-0.354c0.848-0.236,1.744-0.549,2.688-0.938c0.445,0.556,0.743,1.23,0.896,2.022
		c0.153,0.792,0.229,1.632,0.229,2.522c-0.472,0.222-1.021,0.424-1.646,0.604c-0.625,0.181-1.271,0.333-1.938,0.459
		c-0.667,0.125-1.334,0.222-2.001,0.292c-0.667,0.069-1.264,0.104-1.792,0.104c-1.695,0-3.147-0.209-4.356-0.625
		c-1.209-0.417-2.209-1.007-3.001-1.772c-0.792-0.764-1.376-1.695-1.751-2.793c-0.375-1.098-0.563-2.313-0.563-3.647
		c0-1.695,0.292-3.362,0.875-5.002c0.583-1.64,1.41-3.105,2.48-4.397s2.376-2.334,3.918-3.126c1.542-0.792,3.272-1.188,5.189-1.188
		c0.917,0,1.772,0.111,2.564,0.333c0.792,0.222,1.48,0.563,2.063,1.021c0.584,0.458,1.042,1.021,1.376,1.688
		c0.333,0.667,0.5,1.445,0.5,2.334c0,1.25-0.292,2.334-0.875,3.251c-0.584,0.917-1.362,1.695-2.334,2.334
		c-0.973,0.639-2.077,1.16-3.314,1.563c-1.237,0.403-2.522,0.702-3.856,0.896L449.865,463.317L449.865,463.317z M452.241,459.065
		c1.056-0.167,1.917-0.382,2.584-0.646c0.667-0.264,1.195-0.556,1.584-0.875c0.389-0.319,0.653-0.646,0.792-0.979
		c0.139-0.334,0.208-0.667,0.208-1.001c0-0.528-0.173-0.959-0.521-1.292c-0.347-0.333-0.813-0.5-1.396-0.5
		c-0.723,0-1.382,0.16-1.98,0.479c-0.597,0.32-1.118,0.744-1.563,1.271c-0.444,0.528-0.827,1.132-1.146,1.813
		c-0.319,0.681-0.563,1.369-0.729,2.063L452.241,459.065L452.241,459.065z"/>
	<path d="M493.298,465.818c0.306,0.723,0.549,1.528,0.729,2.417c0.181,0.889,0.299,1.765,0.354,2.626
		c-0.612,0.25-1.264,0.452-1.959,0.604c-0.695,0.153-1.369,0.264-2.022,0.334c-0.653,0.069-1.264,0.118-1.834,0.146
		c-0.57,0.028-1.021,0.042-1.355,0.042c-2.029,0-3.8-0.278-5.314-0.834c-1.515-0.556-2.779-1.341-3.793-2.355
		c-1.014-1.014-1.772-2.223-2.272-3.626c-0.5-1.403-0.75-2.966-0.75-4.689c0-2.695,0.403-5.224,1.209-7.586
		c0.806-2.362,1.938-4.425,3.397-6.19c1.459-1.765,3.217-3.154,5.273-4.168c2.056-1.015,4.335-1.522,6.836-1.522
		c1.306,0,2.466,0.077,3.481,0.229c1.014,0.153,2.063,0.479,3.147,0.98c-0.167,0.861-0.382,1.667-0.646,2.417
		c-0.264,0.75-0.632,1.57-1.104,2.459c-0.945-0.361-1.772-0.598-2.48-0.709c-0.708-0.111-1.382-0.167-2.021-0.167
		c-1.862,0-3.46,0.403-4.794,1.209c-1.334,0.806-2.424,1.855-3.272,3.147c-0.848,1.292-1.473,2.758-1.876,4.398
		c-0.403,1.64-0.604,3.293-0.604,4.96c0,2.279,0.59,3.974,1.771,5.085c1.181,1.111,2.869,1.667,5.065,1.667
		c0.417,0,0.806-0.014,1.167-0.042c0.361-0.028,0.723-0.069,1.084-0.125c0.361-0.056,0.75-0.146,1.167-0.271
		C492.297,466.13,492.77,465.984,493.298,465.818L493.298,465.818z"/>
	<path d="M501.717,454.438h-2.626c0-0.083-0.007-0.167-0.021-0.25c-0.014-0.083-0.021-0.181-0.021-0.292
		c0-0.723,0.069-1.396,0.208-2.022c0.139-0.625,0.347-1.271,0.625-1.938h8.42l-3.793,21.55c-1.056,0.167-2.056,0.25-3.001,0.25
		c-0.861,0-1.792-0.083-2.793-0.25L501.717,454.438L501.717,454.438z M502.926,446.31c-0.028-0.973,0.035-1.896,0.188-2.772
		c0.153-0.875,0.396-1.799,0.729-2.772c0.5-0.111,1.028-0.188,1.584-0.229c0.556-0.042,1.056-0.062,1.501-0.062
		c0.444,0,0.938,0.021,1.48,0.062c0.542,0.042,1.049,0.118,1.521,0.229c0,0.973-0.083,1.903-0.25,2.793
		c-0.167,0.889-0.417,1.806-0.75,2.751c-0.5,0.083-1.021,0.139-1.563,0.167c-0.542,0.028-1.035,0.042-1.48,0.042
		c-0.417,0-0.903-0.014-1.459-0.042C503.871,446.449,503.371,446.394,502.926,446.31L502.926,446.31z"/>
	<path d="M514.18,454.438h-3.209c0-0.75,0.056-1.486,0.167-2.209c0.111-0.723,0.319-1.487,0.625-2.293h3.209l0.25-1.25
		c0.139-0.695,0.223-1.355,0.25-1.98c0.028-0.625,0.042-1.146,0.042-1.563c0.722-0.473,1.625-0.806,2.709-1
		c1.084-0.194,2.084-0.292,3.001-0.292c0.139,0.417,0.208,0.945,0.208,1.584c0,0.445-0.035,0.924-0.104,1.438
		c-0.07,0.514-0.16,1.077-0.271,1.688l-0.25,1.375h5.169c0,0.834-0.069,1.598-0.208,2.293c-0.139,0.695-0.333,1.431-0.584,2.209
		h-5.168l-1.459,8.211c-0.056,0.389-0.104,0.75-0.146,1.084c-0.042,0.334-0.062,0.653-0.062,0.959c0,0.722,0.167,1.292,0.5,1.709
		c0.334,0.417,0.959,0.625,1.876,0.625c0.473,0,0.889-0.035,1.251-0.104c0.361-0.069,0.695-0.146,1-0.229
		c0.361,0.806,0.542,1.862,0.542,3.168c0,0.222,0,0.445,0,0.667c0,0.222-0.014,0.444-0.042,0.667
		c-1.195,0.361-2.626,0.542-4.293,0.542c-2.334,0-4.064-0.431-5.19-1.292c-1.125-0.861-1.688-2.307-1.688-4.335
		c0-0.417,0.028-0.848,0.083-1.292c0.056-0.445,0.125-0.931,0.208-1.459L514.18,454.438L514.18,454.438z"/>
	<path d="M530.603,454.438h-2.626c0-0.083-0.007-0.167-0.021-0.25c-0.014-0.083-0.021-0.181-0.021-0.292
		c0-0.723,0.069-1.396,0.208-2.022c0.139-0.625,0.347-1.271,0.625-1.938h8.42l-3.793,21.55c-1.056,0.167-2.056,0.25-3.001,0.25
		c-0.861,0-1.792-0.083-2.793-0.25L530.603,454.438L530.603,454.438z M531.812,446.31c-0.028-0.973,0.035-1.896,0.188-2.772
		c0.153-0.875,0.396-1.799,0.729-2.772c0.5-0.111,1.028-0.188,1.584-0.229c0.555-0.042,1.056-0.062,1.501-0.062
		c0.445,0,0.938,0.021,1.48,0.062c0.542,0.042,1.049,0.118,1.521,0.229c0,0.973-0.083,1.903-0.25,2.793
		c-0.167,0.889-0.417,1.806-0.75,2.751c-0.5,0.083-1.021,0.139-1.563,0.167c-0.542,0.028-1.035,0.042-1.48,0.042
		c-0.417,0-0.903-0.014-1.459-0.042C532.757,446.449,532.257,446.394,531.812,446.31L531.812,446.31z"/>
	<path d="M545.567,463.317c0.167,1.334,0.611,2.327,1.334,2.98c0.723,0.653,1.779,0.979,3.168,0.979
		c1.111,0,2.091-0.118,2.939-0.354c0.848-0.236,1.744-0.549,2.688-0.938c0.445,0.556,0.743,1.23,0.896,2.022
		c0.153,0.792,0.229,1.632,0.229,2.522c-0.472,0.222-1.021,0.424-1.646,0.604c-0.625,0.181-1.271,0.333-1.938,0.459
		c-0.667,0.125-1.334,0.222-2.001,0.292c-0.667,0.069-1.264,0.104-1.792,0.104c-1.695,0-3.147-0.209-4.356-0.625
		c-1.209-0.417-2.209-1.007-3.001-1.772c-0.792-0.764-1.376-1.695-1.751-2.793c-0.375-1.098-0.563-2.313-0.563-3.647
		c0-1.695,0.292-3.362,0.875-5.002c0.583-1.64,1.41-3.105,2.48-4.397c1.07-1.292,2.376-2.334,3.918-3.126
		c1.542-0.792,3.272-1.188,5.189-1.188c0.917,0,1.772,0.111,2.564,0.333c0.792,0.222,1.48,0.563,2.063,1.021
		c0.584,0.458,1.042,1.021,1.376,1.688c0.333,0.667,0.5,1.445,0.5,2.334c0,1.25-0.292,2.334-0.875,3.251
		c-0.584,0.917-1.362,1.695-2.334,2.334c-0.973,0.639-2.077,1.16-3.314,1.563c-1.237,0.403-2.522,0.702-3.856,0.896L545.567,463.317
		L545.567,463.317z M547.943,459.065c1.056-0.167,1.917-0.382,2.584-0.646c0.667-0.264,1.195-0.556,1.584-0.875
		c0.389-0.319,0.653-0.646,0.792-0.979c0.139-0.334,0.208-0.667,0.208-1.001c0-0.528-0.174-0.959-0.521-1.292
		c-0.347-0.333-0.813-0.5-1.396-0.5c-0.723,0-1.383,0.16-1.98,0.479c-0.597,0.32-1.118,0.744-1.563,1.271
		c-0.445,0.528-0.827,1.132-1.146,1.813c-0.319,0.681-0.563,1.369-0.729,2.063L547.943,459.065L547.943,459.065z"/>
	<path d="M566.45,461.983c-0.445-0.167-0.889-0.382-1.334-0.646c-0.444-0.264-0.854-0.597-1.23-1
		c-0.375-0.403-0.681-0.896-0.917-1.48s-0.354-1.278-0.354-2.084c0-1.167,0.229-2.202,0.688-3.105
		c0.458-0.903,1.098-1.667,1.917-2.293c0.82-0.625,1.779-1.104,2.876-1.438c1.098-0.333,2.286-0.5,3.564-0.5
		c0.445,0,0.931,0.021,1.459,0.062s1.063,0.104,1.605,0.188c0.542,0.083,1.07,0.202,1.584,0.354c0.514,0.153,0.98,0.34,1.396,0.563
		c-0.056,0.723-0.188,1.438-0.396,2.147c-0.208,0.709-0.549,1.424-1.021,2.147c-0.583-0.306-1.292-0.556-2.126-0.75
		s-1.626-0.292-2.376-0.292c-0.306,0-0.646,0.028-1.021,0.083c-0.375,0.056-0.729,0.153-1.063,0.292
		c-0.333,0.139-0.611,0.347-0.834,0.625c-0.222,0.278-0.333,0.625-0.333,1.042c0,0.834,0.528,1.486,1.584,1.959l1.625,0.709
		c0.528,0.222,1.042,0.479,1.542,0.771c0.5,0.292,0.945,0.646,1.334,1.063c0.389,0.417,0.702,0.903,0.938,1.459
		c0.236,0.556,0.354,1.209,0.354,1.959c0,1.389-0.278,2.591-0.834,3.605c-0.556,1.014-1.306,1.862-2.251,2.543
		c-0.945,0.681-2.063,1.188-3.356,1.521c-1.292,0.333-2.661,0.5-4.106,0.5c-0.889,0-1.876-0.09-2.959-0.271
		c-1.084-0.181-2.056-0.452-2.918-0.813c0.083-1.612,0.5-3.112,1.25-4.502c0.861,0.389,1.744,0.66,2.647,0.813
		c0.903,0.153,1.771,0.229,2.605,0.229c0.417,0,0.861-0.042,1.334-0.125c0.472-0.083,0.903-0.222,1.292-0.417
		c0.389-0.194,0.716-0.465,0.98-0.813c0.264-0.348,0.396-0.771,0.396-1.271c0-0.556-0.194-1.007-0.583-1.355
		c-0.389-0.348-0.931-0.66-1.626-0.938L566.45,461.983L566.45,461.983z"/>
	<path d="M348.259,500.59c0.353,0.668,0.557,1.457,0.613,2.367c-0.371,0.167-0.77,0.306-1.197,0.418
		c-0.427,0.111-0.863,0.204-1.309,0.278c-0.446,0.074-0.886,0.13-1.322,0.167c-0.436,0.037-0.831,0.056-1.183,0.056
		c-2.432,0-4.302-0.687-5.611-2.06c-1.309-1.374-1.963-3.267-1.963-5.681c0-1.671,0.232-3.286,0.696-4.845
		c0.464-1.559,1.156-2.938,2.074-4.135c0.919-1.197,2.056-2.158,3.411-2.882c1.355-0.724,2.924-1.086,4.706-1.086
		c0.984,0,1.824,0.07,2.52,0.209c0.696,0.139,1.286,0.311,1.768,0.515c-0.093,0.427-0.2,0.817-0.32,1.17
		c-0.121,0.353-0.302,0.743-0.543,1.17c-0.538-0.204-1.067-0.353-1.587-0.446c-0.52-0.093-1.104-0.139-1.754-0.139
		c-1.374,0-2.562,0.288-3.564,0.863c-1.002,0.575-1.824,1.341-2.464,2.297c-0.64,0.956-1.114,2.047-1.42,3.272
		c-0.306,1.225-0.46,2.487-0.46,3.787c0,1.801,0.441,3.165,1.323,4.093c0.882,0.928,2.158,1.392,3.829,1.392
		c0.705,0,1.359-0.065,1.963-0.195C347.066,501.045,347.665,500.85,348.259,500.59L348.259,500.59z"/>
	<path d="M366.83,483.521c0.223-0.037,0.455-0.065,0.696-0.084c0.241-0.018,0.492-0.028,0.752-0.028c0.223,0,0.459,0.009,0.71,0.028
		c0.251,0.019,0.487,0.046,0.71,0.084l-1.448,8.242h7.685l1.42-8.242c0.223-0.037,0.455-0.065,0.696-0.084
		c0.241-0.018,0.492-0.028,0.752-0.028c0.223,0,0.464,0.009,0.724,0.028c0.26,0.019,0.492,0.046,0.696,0.084l-3.508,20.021
		c-0.223,0.037-0.46,0.065-0.71,0.084c-0.251,0.018-0.506,0.028-0.766,0.028c-0.26,0-0.506-0.009-0.738-0.028
		c-0.232-0.019-0.45-0.047-0.655-0.084l1.615-9.272h-7.657l-1.615,9.272c-0.222,0.037-0.464,0.065-0.724,0.084
		c-0.26,0.018-0.51,0.028-0.752,0.028c-0.26,0-0.506-0.009-0.738-0.028c-0.232-0.019-0.45-0.047-0.654-0.084L366.83,483.521
		L366.83,483.521z"/>
	<path d="M400.882,483.521c0.241-0.037,0.534-0.06,0.877-0.069c0.344-0.009,0.645-0.014,0.905-0.014
		c0.278,0,0.562,0.005,0.849,0.014c0.288,0.009,0.543,0.032,0.766,0.069l2.729,20.021c-0.538,0.056-1.077,0.084-1.615,0.084
		c-0.446,0-0.901-0.028-1.365-0.084l-0.529-4.706h-6.739l-2.033,4.706c-0.446,0.056-0.947,0.084-1.504,0.084
		c-0.26,0-0.515-0.005-0.765-0.014c-0.251-0.009-0.478-0.033-0.682-0.07L400.882,483.521L400.882,483.521z M403.221,496.386
		l-1.141-9.662l-4.232,9.662H403.221L403.221,496.386z"/>
	<path d="M425.078,483.521c0.223-0.037,0.459-0.065,0.71-0.084c0.251-0.018,0.506-0.028,0.766-0.028
		c0.241,0,0.473,0.009,0.696,0.028c0.223,0.019,0.445,0.046,0.668,0.084l-3.063,17.515h7.463c-0.037,0.483-0.084,0.919-0.139,1.309
		c-0.056,0.39-0.167,0.789-0.334,1.197h-10.275L425.078,483.521L425.078,483.521z"/>
	<path d="M450.248,483.521c0.223-0.037,0.459-0.065,0.71-0.084c0.251-0.018,0.506-0.028,0.766-0.028
		c0.241,0,0.473,0.009,0.696,0.028c0.223,0.019,0.445,0.046,0.668,0.084l-3.063,17.515h7.462c-0.037,0.483-0.084,0.919-0.139,1.309
		c-0.056,0.39-0.167,0.789-0.334,1.197h-10.275L450.248,483.521L450.248,483.521z"/>
	<path d="M475.418,483.521h10.609c0,0.835-0.148,1.671-0.446,2.506h-7.741l-1.003,5.708h6.182c0,0.854-0.148,1.689-0.446,2.506
		h-6.181c-0.204,1.151-0.404,2.288-0.599,3.411c-0.195,1.123-0.395,2.26-0.599,3.411h7.964c-0.056,0.483-0.102,0.901-0.139,1.253
		c-0.037,0.353-0.139,0.761-0.306,1.225h-10.804L475.418,483.521L475.418,483.521z"/>
	<path d="M501.534,483.521c0.204-0.037,0.431-0.06,0.682-0.069c0.251-0.009,0.478-0.014,0.682-0.014
		c0.464,0,0.882,0.028,1.253,0.084l5.625,15.092l2.617-15.092c0.186-0.018,0.367-0.037,0.543-0.056
		c0.176-0.019,0.357-0.028,0.543-0.028h0.668l0.891,0.084l-3.508,20.021c-0.204,0.037-0.422,0.06-0.655,0.07
		c-0.232,0.009-0.459,0.014-0.682,0.014c-0.204,0-0.413-0.005-0.627-0.014c-0.214-0.009-0.422-0.033-0.627-0.07l-5.653-15.008
		l-2.589,15.008c-0.371,0.056-0.733,0.084-1.086,0.084h-0.696l-0.891-0.084L501.534,483.521L501.534,483.521z"/>
	<path d="M540.821,493.211c0.223-0.037,0.459-0.065,0.71-0.084c0.251-0.018,0.487-0.028,0.71-0.028c0.26,0,0.506,0.009,0.738,0.028
		c0.232,0.019,0.459,0.047,0.682,0.084c-0.297,1.634-0.589,3.253-0.877,4.859c-0.288,1.606-0.571,3.226-0.849,4.859
		c-0.724,0.297-1.596,0.529-2.618,0.696c-1.021,0.167-2.005,0.251-2.951,0.251c-1.207,0-2.283-0.186-3.23-0.557
		c-0.947-0.371-1.745-0.895-2.395-1.573c-0.65-0.677-1.142-1.494-1.476-2.45c-0.334-0.956-0.501-2.009-0.501-3.161
		c0-1.708,0.227-3.341,0.682-4.901c0.455-1.559,1.141-2.938,2.06-4.135c0.919-1.197,2.056-2.149,3.411-2.854
		c1.355-0.705,2.942-1.058,4.762-1.058c0.928,0,1.75,0.074,2.464,0.223c0.715,0.149,1.313,0.325,1.796,0.529
		c-0.093,0.427-0.2,0.817-0.32,1.169c-0.121,0.353-0.302,0.743-0.543,1.17c-0.52-0.204-1.039-0.353-1.559-0.446
		c-0.52-0.093-1.123-0.139-1.81-0.139c-1.374,0-2.557,0.288-3.55,0.863c-0.993,0.576-1.81,1.341-2.45,2.297
		c-0.64,0.956-1.114,2.047-1.42,3.272c-0.306,1.225-0.46,2.487-0.46,3.787c0,1.856,0.445,3.23,1.337,4.121
		c0.891,0.891,2.125,1.337,3.703,1.337c0.464,0,0.924-0.033,1.378-0.098c0.455-0.065,0.849-0.162,1.183-0.292L540.821,493.211
		L540.821,493.211z"/>
	<path d="M561.508,483.521h10.609c0,0.835-0.149,1.671-0.446,2.506h-7.741l-1.003,5.708h6.182c0,0.854-0.149,1.689-0.446,2.506
		h-6.182c-0.204,1.151-0.404,2.288-0.599,3.411c-0.195,1.123-0.395,2.26-0.599,3.411h7.964c-0.056,0.483-0.102,0.901-0.139,1.253
		c-0.037,0.353-0.139,0.761-0.307,1.225h-10.804L561.508,483.521L561.508,483.521z"/>
	<path fill-rule="evenodd" clip-rule="evenodd" fill="#31B44E" d="M383.941,115.219L383.941,115.219
		c1.029,0,1.871,0.842,1.871,1.871v8.123c0,1.029-0.842,1.871-1.871,1.871l0,0c-1.029,0-1.871-0.842-1.871-1.871v-8.123
		C382.07,116.061,382.912,115.219,383.941,115.219L383.941,115.219z"/>
	<path fill-rule="evenodd" clip-rule="evenodd" d="M375.122,100.367L375.122,100.367c1.029,0,1.871,0.842,1.871,1.871v1.474
		c0,1.029-0.842,1.871-1.871,1.871l0,0c-1.029,0-1.871-0.842-1.871-1.871v-1.474C373.25,101.209,374.093,100.367,375.122,100.367
		L375.122,100.367z"/>
	<path fill-rule="evenodd" clip-rule="evenodd" fill="#ED1C24" d="M375.122,109.286L375.122,109.286
		c1.029,0,1.871,0.842,1.871,1.871v10.521l-1.42-0.377l-2.322,0.452v-10.596C373.25,110.129,374.093,109.286,375.122,109.286
		L375.122,109.286z"/>
	<path fill-rule="evenodd" clip-rule="evenodd" fill="#2E3192" d="M362.079,93.28L362.079,93.28c1.029,0,1.871,0.842,1.871,1.871
		v28.411l-3.742,0.728V95.151C360.208,94.122,361.05,93.28,362.079,93.28L362.079,93.28z"/>
	<path fill-rule="evenodd" clip-rule="evenodd" fill="#939598" d="M333.316,123.961L333.316,123.961
		c1.029,0,1.871,0.842,1.871,1.871v24.025l-2.34,0.496v7.465l-1.402,0.229v-32.215C331.445,124.803,332.287,123.961,333.316,123.961
		L333.316,123.961z"/>
	<path fill-rule="evenodd" clip-rule="evenodd" fill="#F3A51D" d="M343.767,112.777L343.767,112.777
		c1.029,0,1.871,0.844,1.871,1.871v5.655c0,1.027-0.842,1.871-1.871,1.871l0,0c-1.029,0-1.871-0.842-1.871-1.871v-5.655
		C341.896,113.619,342.738,112.777,343.767,112.777L343.767,112.777z"/>
	<path fill-rule="evenodd" clip-rule="evenodd" fill="#2E3192" d="M343.767,124.414L343.767,124.414
		c1.029,0,1.871,0.842,1.871,1.871v7.513l-3.659-0.429l-0.083,0.018v-7.102C341.896,125.256,342.738,124.414,343.767,124.414
		L343.767,124.414z"/>
	<path fill-rule="evenodd" clip-rule="evenodd" fill="#939598" d="M411.826,166.962l5.047-9.338l3.612,7.237v17.496l-8.57,2.471
		v-17.877L411.826,166.962L411.826,166.962z M474.956,193.485H279.512c16.705-2.891,34.06-5.037,51.948-6.375v-39.69l3.645-0.594
		v-7.555l7.077-1.5l11.789,1.384v5.263h2.995v25.306h3.016v-40.961l15.441-3.003l10.509,2.789v34.058l6.171-8.936l1.888-0.347
		v-0.296v-3.946l2.13-0.576v4.427v7.265l2.327-2.4v-5.292l1.748-0.321l7.815-1.434l2.858,5.624l-1.731,0.325l-1.963-3.932
		l-9.044,15.035v14.496l3.647-1.305v-13.268l5.733-9.541l9.882-1.813l5.617,11.057l-1.387-0.286l-0.294-0.589
		c0,7.644,0.009,13.404,0.01,20.663C438.949,188.526,456.85,190.598,474.956,193.485L474.956,193.485z M393.321,175.1l-5.368-0.164
		v-4.531l5.368-0.375V175.1L393.321,175.1z M383.796,165.699l-2.301,3.332l2.301-0.17v4.926l-7.819,1.769v-46.882l7.819,1.804
		V165.699L383.796,165.699z M363.242,132.323l3.742-0.682v5.414l-3.742,0.235V132.323L363.242,132.323z M366.984,139.491v5.168
		l-3.742,0.171v-5.167L366.984,139.491L366.984,139.491z M366.984,147.095v5.369l-3.742,0.107v-5.368L366.984,147.095
		L366.984,147.095z M366.984,154.899v5.059l-3.742-0.021v-4.995L366.984,154.899L366.984,154.899z M366.984,162.393v4.898
		l-3.742-0.084v-4.899L366.984,162.393L366.984,162.393z M366.984,169.728v4.967l-3.742-0.61v-4.507L366.984,169.728
		L366.984,169.728z M368.927,131.367l3.741-0.681v6.013l-3.741,0.235V131.367L368.927,131.367z M372.668,139.231v5.168l-3.741,0.171
		v-5.168L372.668,139.231L372.668,139.231z M372.668,146.932v5.368l-3.741,0.107v-5.368L372.668,146.932L372.668,146.932z
		 M372.668,154.833v5.157l-3.741-0.021v-5.093L372.668,154.833L372.668,154.833z M372.668,162.522v4.898l-3.741-0.084v-4.898
		L372.668,162.522L372.668,162.522z M372.668,169.954v5.697l-3.741-0.61v-5.236L372.668,169.954L372.668,169.954z M354.67,146.595
		v35.556l-7.176,2.858v-39.661l-4.043,0.308v-5.112l8.484,0.832v5.094L354.67,146.595L354.67,146.595z M340.41,149.006l3.742-0.263
		v36.024l-3.742-0.611V149.006L340.41,149.006z M334.235,149.858l3.742-0.264v34.119l-3.742-0.611V149.858L334.235,149.858z"/>
	<path fill-rule="evenodd" clip-rule="evenodd" d="M419.454,136.839L419.454,136.839c1.029,0,1.871,0.842,1.871,1.871v15.806
		l-1.527-3.006l-2.215,0.406V138.71C417.583,137.681,418.425,136.839,419.454,136.839L419.454,136.839z"/>
	<path fill-rule="evenodd" clip-rule="evenodd" fill="#F3A51D" d="M407.693,122.654L407.693,122.654
		c1.029,0,1.871,0.843,1.871,1.871v21.521l-3.743,0.687v-22.207C405.821,123.496,406.664,122.654,407.693,122.654L407.693,122.654z"
		/>
	<path fill-rule="evenodd" clip-rule="evenodd" d="M407.693,93.323L407.693,93.323c1.029,0,1.871,0.843,1.871,1.871v19.112
		c0,1.028-0.842,1.871-1.871,1.871l0,0c-1.029,0-1.871-0.842-1.871-1.871V95.195C405.821,94.165,406.664,93.323,407.693,93.323
		L407.693,93.323z"/>
	<path fill-rule="evenodd" clip-rule="evenodd" d="M333.316,115.323L333.316,115.323c1.029,0,1.871,0.842,1.871,1.871v1.474
		c0,1.029-0.842,1.871-1.871,1.871l0,0c-1.029,0-1.871-0.842-1.871-1.871v-1.474C331.445,116.165,332.287,115.323,333.316,115.323
		L333.316,115.323z"/>
	<path fill-rule="evenodd" clip-rule="evenodd" fill="#F3A51D" d="M396.025,130.168L396.025,130.168
		c1.029,0,1.871,0.842,1.871,1.871v0.794c0,1.029-0.842,1.871-1.871,1.871l0,0c-1.029,0-1.871-0.842-1.871-1.871v-0.794
		C394.153,131.01,394.996,130.168,396.025,130.168L396.025,130.168z"/>
	<path fill-rule="evenodd" clip-rule="evenodd" fill="#939598" d="M396.025,136.839L396.025,136.839
		c1.029,0,1.871,0.844,1.871,1.871v5.655c0,1.027-0.842,1.871-1.871,1.871l0,0c-1.029,0-1.871-0.842-1.871-1.871v-5.655
		C394.153,137.681,394.996,136.839,396.025,136.839L396.025,136.839z"/>
	<path fill-rule="evenodd" clip-rule="evenodd" fill="#31B44E" d="M396.025,136.839L396.025,136.839
		c1.029,0,1.871,0.844,1.871,1.871v5.655c0,1.027-0.842,1.871-1.871,1.871l0,0c-1.029,0-1.871-0.842-1.871-1.871v-5.655
		C394.153,137.681,394.996,136.839,396.025,136.839L396.025,136.839z"/>
	<path fill-rule="evenodd" clip-rule="evenodd" fill="#ED1C24" d="M355.096,121.553L355.096,121.553
		c1.029,0,1.871,0.847,1.871,1.871v8.999c0,1.024-0.842,1.871-1.871,1.871l0,0c-1.029,0-1.871-0.842-1.871-1.871v-8.999
		C353.224,122.395,354.066,121.553,355.096,121.553L355.096,121.553z"/>
	<path fill-rule="evenodd" clip-rule="evenodd" fill="#F3A51D" d="M368.302,116.596L368.302,116.596
		c1.029,0,1.871,0.842,1.871,1.871v0.794c0,1.029-0.842,1.871-1.871,1.871l0,0c-1.029,0-1.871-0.842-1.871-1.871v-0.794
		C366.43,117.438,367.272,116.596,368.302,116.596L368.302,116.596z"/>
</g>
</svg>
