<?xml version="1.0" encoding="UTF-8" standalone="no"?>
<!-- Generator: Adobe Illustrator 17.0.0, SVG Export Plug-In . SVG Version: 6.00 Build 0)  -->

<svg
   xmlns:dc="http://purl.org/dc/elements/1.1/"
   xmlns:cc="http://creativecommons.org/ns#"
   xmlns:rdf="http://www.w3.org/1999/02/22-rdf-syntax-ns#"
   xmlns:svg="http://www.w3.org/2000/svg"
   xmlns="http://www.w3.org/2000/svg"
   xmlns:sodipodi="http://sodipodi.sourceforge.net/DTD/sodipodi-0.dtd"
   xmlns:inkscape="http://www.inkscape.org/namespaces/inkscape"
   version="1.1"
   id="Layer_1"
   x="0px"
   y="0px"
   width="628.28601"
   height="325.11557"
   viewBox="0 0 628.28601 325.11555"
   enable-background="new 0 0 841.89 595.28"
   xml:space="preserve"
   inkscape:version="0.91 r13725"
   sodipodi:docname="RCCFinalLogo.svg"><metadata
     id="metadata177"><rdf:RDF><cc:Work
         rdf:about=""><dc:format>image/svg+xml</dc:format><dc:type
           rdf:resource="http://purl.org/dc/dcmitype/StillImage" /><dc:title></dc:title></cc:Work></rdf:RDF></metadata><defs
     id="defs175" /><sodipodi:namedview
     pagecolor="#ffffff"
     bordercolor="#666666"
     borderopacity="1"
     objecttolerance="10"
     gridtolerance="10"
     guidetolerance="10"
     inkscape:pageopacity="0"
     inkscape:pageshadow="2"
     inkscape:window-width="1925"
     inkscape:window-height="1044"
     id="namedview173"
     showgrid="false"
     inkscape:zoom="1"
     inkscape:cx="492.74531"
     inkscape:cy="33.031219"
     inkscape:window-x="1280"
     inkscape:window-y="0"
     inkscape:window-maximized="0"
     inkscape:current-layer="g3"
     fit-margin-top="0"
     fit-margin-left="0"
     fit-margin-right="0"
     fit-margin-bottom="0" /><g
     id="g3"
     transform="translate(0,-1.5258789e-5)"><path
       d="m 0.004076,224.31623 c 2.1358211,-0.24252 4.1371343,-0.45039 6.0059777,-0.61955 1.8688434,-0.16915 3.9435246,-0.25475 6.2240433,-0.25475 2.669776,0 5.302869,0.24253 7.899277,0.72757 2.596408,0.48505 4.938067,1.34711 7.024976,2.58418 2.08691,1.23707 3.774371,2.9123 5.060348,5.02366 1.285976,2.11137 1.929983,4.79337 1.929983,8.04398 0,1.94017 -0.242522,3.65209 -0.727566,5.13168 -0.485042,1.48162 -1.104594,2.77778 -1.856615,3.89461 -0.752021,1.11682 -1.565182,2.07468 -2.439482,2.87561 -0.874301,0.80093 -1.69969,1.44494 -2.476167,1.92998 l -1.237064,0.80093 12.73952,22.13265 c -0.970087,0.0978 -1.991123,0.19362 -3.056995,0.29144 -1.067911,0.0978 -2.160278,0.1447 -3.2771,0.1447 -1.844387,0 -3.664319,-0.1447 -5.459794,-0.43614 l -13.68719,-24.31534 1.746564,-0.8743 c 0.678653,-0.34034 1.504042,-0.77647 2.474129,-1.31043 0.970086,-0.53396 1.905527,-1.20242 2.802246,-2.00335 0.898757,-0.80093 1.663006,-1.77102 2.292746,-2.9123 0.631779,-1.14128 0.945631,-2.48635 0.945631,-4.04134 0,-3.057 -0.8743,-5.30287 -2.620865,-6.73355 -1.746563,-1.43067 -4.004663,-2.14805 -6.770226,-2.14805 -1.067911,0 -2.037997,0.0734 -2.912298,0.21807 l 0,44.18989 c -0.8743005,0.0979 -1.7465633,0.18138 -2.620864,0.25475 -0.8743009,0.0734 -1.7241456,0.11001 -2.5474966,0.11001 -0.8253888,0 -1.6976516,-0.0245 -2.6208644,-0.0734 C 1.9177554,276.8986 0.97008666,276.80282 0,276.65608 l 0,-52.33985 0.004076,0 z"
       id="path39"
       inkscape:connector-curvature="0" /><path
       d="m 43.973865,224.31623 29.70381,0 c 0.291433,1.45513 0.436131,2.93676 0.436131,4.44081 0,1.60186 -0.144698,3.13036 -0.436131,4.58548 l -19.073616,0 0,11.35776 15.142319,0 c 0.291433,1.55296 0.438169,3.057 0.438169,4.51417 0,1.55295 -0.144698,3.08145 -0.438169,4.58753 l -15.142319,0 0,13.83188 19.583114,0 c 0.291434,1.45513 0.436131,2.93676 0.436131,4.44081 0,1.60186 -0.144697,3.13036 -0.436131,4.58548 l -30.213308,0 0,-52.34392 0,0 z"
       id="path41"
       inkscape:connector-curvature="0" /><path
       d="m 92.170461,252.41818 c -1.650778,-0.63177 -3.130363,-1.32266 -4.440797,-2.07469 -1.310431,-0.75201 -2.427254,-1.65077 -3.348429,-2.69423 -0.921174,-1.04344 -1.638549,-2.29274 -2.148049,-3.74991 -0.509499,-1.45717 -0.764248,-3.20373 -0.764248,-5.24172 0,-2.47617 0.423903,-4.65887 1.273748,-6.55217 0.849845,-1.8933 2.050225,-3.48294 3.603178,-4.76891 1.552955,-1.28598 3.421798,-2.25607 5.606531,-2.91231 2.184733,-0.65622 4.634406,-0.98231 7.353093,-0.98231 2.476172,0 4.793372,0.21807 6.953652,0.65624 2.16027,0.43613 4.42856,1.06791 6.80691,1.8933 -0.29144,2.81448 -1.06792,5.58208 -2.32943,8.29872 -0.72757,-0.29143 -1.46736,-0.58286 -2.21938,-0.8743 -0.75203,-0.29143 -1.55296,-0.53396 -2.4028,-0.72756 -0.84985,-0.19361 -1.80771,-0.35258 -2.87562,-0.47282 -1.06791,-0.12227 -2.28051,-0.18138 -3.639859,-0.18138 -0.825389,0 -1.660968,0.0734 -2.512851,0.21807 -0.849845,0.14469 -1.614094,0.41167 -2.292747,0.80093 -0.678653,0.38722 -1.237065,0.95785 -1.675234,1.70988 -0.436131,0.75202 -0.654197,1.73638 -0.654197,2.94898 0,0.97213 0.169154,1.78325 0.5095,2.43948 0.340345,0.6542 0.800932,1.21261 1.3838,1.67523 0.582866,0.46059 1.237064,0.84986 1.964629,1.16574 0.727565,0.31589 1.457168,0.61955 2.184733,0.90895 l 4.367426,1.67524 c 1.84439,0.72756 3.51962,1.47958 5.02366,2.25605 1.50405,0.77648 2.7778,1.73638 3.82125,2.87562 1.04345,1.14128 1.85662,2.52304 2.43948,4.14936 0.58287,1.62633 0.8743,3.62764 0.8743,6.00597 0,2.47414 -0.44836,4.73224 -1.34711,6.77023 -0.89876,2.038 -2.19696,3.7866 -3.89462,5.24174 -1.69969,1.45513 -3.79882,2.5964 -6.29741,3.42179 -2.50062,0.8254 -5.374196,1.23706 -8.626839,1.23706 -1.601865,0 -3.03254,-0.0489 -4.296098,-0.14469 -1.26152,-0.0979 -2.463939,-0.25475 -3.603179,-0.47281 -1.141278,-0.21807 -2.268291,-0.49728 -3.385114,-0.83762 -1.116821,-0.34034 -2.280518,-0.75202 -3.495165,-1.23706 0.144698,-1.40826 0.411676,-2.87563 0.800933,-4.40412 0.387219,-1.5285 0.849845,-3.06923 1.3838,-4.62218 2.037998,0.82539 3.955753,1.44291 5.751229,1.85662 1.795475,0.41167 3.71323,0.61955 5.751227,0.61955 3.056997,0 5.459795,-0.57064 7.208396,-1.71191 1.74656,-1.14129 2.62086,-2.87563 2.62086,-5.20505 0,-1.16574 -0.20583,-2.13583 -0.61955,-2.9123 -0.41167,-0.77648 -0.94563,-1.43068 -1.60186,-1.96667 -0.65624,-0.53396 -1.39603,-0.98231 -2.221419,-1.34711 -0.825388,-0.36481 -1.675233,-0.71534 -2.547496,-1.05568 l -4.442834,-1.67524 0,0 z"
       id="path43"
       inkscape:connector-curvature="0" /><path
       d="m 122.67316,224.09817 c 2.23364,-0.1936 4.48971,-0.35257 6.77023,-0.47281 2.28052,-0.12228 4.58753,-0.18138 6.91696,-0.18138 2.42726,0 4.8912,0.24252 7.38978,0.72756 2.50063,0.48504 4.75669,1.39602 6.77023,2.72887 2.01354,1.33489 3.65208,3.19151 4.91361,5.56985 1.26152,2.37834 1.8933,5.45979 1.8933,9.2464 0,3.7866 -0.63178,6.85582 -1.8933,9.2097 -1.26153,2.35389 -2.88784,4.2105 -4.87692,5.56985 -1.98909,1.35934 -4.21051,2.28052 -6.66222,2.7676 -2.44968,0.48504 -4.8647,0.72757 -7.24305,0.72757 -0.63177,0 -1.22483,-0.0122 -1.78324,-0.0367 -0.55841,-0.0245 -1.08014,-0.0612 -1.56518,-0.11001 l 0,16.81756 c -0.92118,0.14469 -1.81993,0.24252 -2.69423,0.29143 -0.8743,0.0489 -1.72414,0.0734 -2.54751,0.0734 -0.77647,0 -1.62631,-0.0245 -2.54749,-0.0734 -0.92118,-0.0489 -1.86884,-0.14469 -2.83892,-0.29143 l 0,-52.56403 -0.002,0 z m 10.6302,26.93621 c 0.58287,0.0978 1.12905,0.1447 1.63855,0.1447 0.5095,0 1.12905,0 1.85661,0 1.21465,0 2.4028,-0.15693 3.5665,-0.47282 1.16573,-0.31589 2.19696,-0.83761 3.09368,-1.56518 0.89672,-0.72757 1.61409,-1.68542 2.14805,-2.87562 0.53395,-1.19018 0.80093,-2.65754 0.80093,-4.4041 0,-1.79548 -0.26698,-3.31176 -0.80093,-4.55085 -0.53396,-1.23707 -1.24929,-2.23161 -2.14805,-2.98568 -0.89876,-0.75201 -1.92998,-1.28597 -3.09368,-1.60186 -1.1637,-0.31588 -2.35389,-0.47281 -3.5665,-0.47281 -0.53396,0 -1.03122,0.0122 -1.49181,0.0367 -0.46059,0.0245 -1.12905,0.0857 -2.00132,0.18138 l 0,18.56617 -0.002,0 z"
       id="path45"
       inkscape:connector-curvature="0" /><path
       d="m 186.44821,277.53445 c -3.93129,0 -7.32864,-0.67865 -10.19202,-2.03799 -2.86339,-1.35934 -5.21728,-3.24041 -7.06167,-5.64321 -1.84439,-2.40281 -3.21595,-5.24173 -4.11471,-8.51679 -0.89672,-3.27711 -1.34712,-6.85582 -1.34712,-10.73821 0,-3.88239 0.44837,-7.48557 1.34712,-10.81157 0.89876,-3.32398 2.26829,-6.19959 4.11471,-8.62685 1.84439,-2.42725 4.19828,-4.31852 7.06167,-5.67786 2.86338,-1.35934 6.26073,-2.03799 10.19202,-2.03799 3.93129,0 7.32864,0.68068 10.19202,2.03799 2.86339,1.35934 5.21728,3.25265 7.06167,5.67786 1.84439,2.42726 3.21595,5.30287 4.11267,8.62685 0.89672,3.32396 1.34712,6.92918 1.34712,10.81157 0,3.88239 -0.4504,7.4611 -1.34712,10.73821 -0.89875,3.2771 -2.26828,6.11398 -4.11267,8.51679 -1.84439,2.4028 -4.19828,4.28387 -7.06167,5.64321 -2.86338,1.35731 -6.26073,2.03799 -10.19202,2.03799 l 0,0 z m 0,-8.88159 c 7.52225,0 11.28439,-6.01821 11.28439,-18.05461 0,-6.0182 -0.90894,-10.53237 -2.72887,-13.54046 -1.81994,-3.01012 -4.64664,-4.51416 -8.48215,-4.51416 -7.62007,0 -11.42909,6.01821 -11.42909,18.05462 -0.002,12.0364 3.78456,18.05461 11.35572,18.05461 l 0,0 z"
       id="path47"
       inkscape:connector-curvature="0" /><path
       d="m 217.97195,224.31623 c 1.50404,-0.29143 2.93676,-0.43817 4.2961,-0.43817 1.45512,0 2.95917,0.14674 4.51416,0.43817 l 20.23935,33.34368 0,-33.34368 c 1.7486,-0.29143 3.42181,-0.43817 5.02367,-0.43817 1.50403,0 2.9612,0.14674 4.36742,0.43817 l 0,52.34392 c -1.55295,0.29144 -2.9612,0.43613 -4.22272,0.43613 -1.35936,0 -2.83893,-0.14469 -4.44081,-0.43613 l -20.38404,-33.2703 0,33.2703 c -1.55295,0.29144 -3.13036,0.43613 -4.73223,0.43613 -1.60186,0 -3.15482,-0.14469 -4.65887,-0.43613 l 0,-52.34392 -0.002,0 z"
       id="path49"
       inkscape:connector-curvature="0" /><path
       d="m 276.14046,252.41818 c -1.65077,-0.63177 -3.13036,-1.32266 -4.44079,-2.07469 -1.31043,-0.75201 -2.42726,-1.65077 -3.34842,-2.69423 -0.92118,-1.04344 -1.63855,-2.29274 -2.14806,-3.74991 -0.5095,-1.45513 -0.76425,-3.20373 -0.76425,-5.24172 0,-2.47617 0.4239,-4.65887 1.27376,-6.55217 0.84984,-1.8933 2.05022,-3.48294 3.60317,-4.76891 1.55296,-1.28598 3.42179,-2.25607 5.60653,-2.91231 2.18473,-0.65622 4.6344,-0.98231 7.35309,-0.98231 2.47617,0 4.79337,0.21807 6.95161,0.65624 2.16028,0.43613 4.42857,1.06791 6.80692,1.8933 -0.29143,2.81448 -1.06792,5.58208 -2.32944,8.29872 -0.72756,-0.29143 -1.46735,-0.58286 -2.21937,-0.8743 -0.75203,-0.29143 -1.55296,-0.53396 -2.4028,-0.72756 -0.84985,-0.19361 -1.80771,-0.35258 -2.87562,-0.47282 -1.06791,-0.12227 -2.28052,-0.18138 -3.63986,-0.18138 -0.82539,0 -1.66301,0.0734 -2.51285,0.21807 -0.84984,0.14469 -1.61409,0.41167 -2.29275,0.80093 -0.67865,0.38722 -1.23707,0.95785 -1.67523,1.70988 -0.43614,0.75202 -0.6542,1.73638 -0.6542,2.94898 0,0.97213 0.16915,1.78325 0.50949,2.43948 0.34036,0.6542 0.80095,1.21261 1.3838,1.67523 0.58287,0.46059 1.23708,0.84986 1.96464,1.16574 0.72756,0.31589 1.45717,0.61955 2.18473,0.90895 l 4.36742,1.67524 c 1.84439,0.72756 3.51963,1.47958 5.02367,2.25605 1.50404,0.77648 2.7778,1.73638 3.82124,2.87562 1.04346,1.14128 1.85663,2.52304 2.4395,4.14936 0.58285,1.62633 0.87429,3.62764 0.87429,6.00597 0,2.47414 -0.44836,4.73224 -1.34712,6.77023 -0.89672,2.038 -2.19696,3.7866 -3.89461,5.24174 -1.69969,1.45513 -3.79679,2.5964 -6.29741,3.42179 -2.50062,0.8254 -5.3742,1.23706 -8.62684,1.23706 -1.60187,0 -3.03254,-0.0489 -4.2961,-0.14469 -1.26152,-0.0979 -2.46393,-0.25475 -3.60318,-0.47281 -1.14127,-0.21807 -2.26829,-0.49728 -3.38512,-0.83762 -1.11681,-0.34034 -2.28052,-0.75202 -3.49516,-1.23706 0.14471,-1.40826 0.41168,-2.87563 0.80093,-4.40412 0.38927,-1.5285 0.84985,-3.06923 1.3838,-4.62218 2.03801,0.82539 3.95575,1.44291 5.75123,1.85662 1.79549,0.41167 3.71323,0.61955 5.75124,0.61955 3.05699,0 5.45979,-0.57064 7.20635,-1.71191 1.74657,-1.14129 2.62087,-2.87563 2.62087,-5.20505 0,-1.16574 -0.20584,-2.13583 -0.61955,-2.9123 -0.41168,-0.77648 -0.94564,-1.43068 -1.60187,-1.96667 -0.65624,-0.53396 -1.39603,-0.98231 -2.22142,-1.34711 -0.82539,-0.36481 -1.67523,-0.71534 -2.5475,-1.05568 l -4.43876,-1.67524 0,0 z"
       id="path51"
       inkscape:connector-curvature="0" /><path
       d="m 306.64318,224.31623 c 1.79546,-0.29143 3.56648,-0.43817 5.31509,-0.43817 1.74656,0 3.54407,0.14674 5.38643,0.43817 l 0,52.34392 c -1.84439,0.29144 -3.61541,0.43613 -5.31511,0.43613 -1.79547,0 -3.59095,-0.14469 -5.38846,-0.43613 l 0,-52.34392 0.002,0 z"
       id="path53"
       inkscape:connector-curvature="0" /><path
       d="m 323.16929,224.31623 c 0.82539,-0.0978 1.77102,-0.1936 2.83892,-0.29143 1.06792,-0.0978 2.01355,-0.14674 2.83894,-0.14674 1.84439,0 3.7866,0.14674 5.82459,0.43817 l 11.43113,41.2776 11.57583,-41.2776 c 0.97008,-0.14469 1.90552,-0.24252 2.80224,-0.29143 0.89876,-0.0489 1.8077,-0.0734 2.73092,-0.0734 0.87429,0 1.75879,0.0245 2.65755,0.0734 0.89672,0.0489 1.83215,0.1447 2.80224,0.29143 l -16.89091,52.34392 c -1.019,0.1447 -2.00133,0.25475 -2.94898,0.32812 -0.94564,0.0734 -1.95242,0.11001 -3.02235,0.11001 -0.97009,0 -1.91776,-0.0367 -2.83894,-0.11001 -0.92321,-0.0734 -1.94221,-0.18138 -3.05699,-0.32812 l -16.74419,-52.34392 0,0 z"
       id="path55"
       inkscape:connector-curvature="0" /><path
       d="m 374.49625,224.31623 29.7038,0 c 0.29144,1.45513 0.43613,2.93676 0.43613,4.44081 0,1.60186 -0.14469,3.13036 -0.43613,4.58548 l -19.07361,0 0,11.35776 15.14232,0 c 0.29144,1.55296 0.43817,3.057 0.43817,4.51417 0,1.55295 -0.1447,3.08145 -0.43817,4.58753 l -15.14232,0 0,13.83188 19.58311,0 c 0.29144,1.45513 0.43614,2.93676 0.43614,4.44081 0,1.60186 -0.1447,3.13036 -0.43614,4.58548 l -30.2133,0 0,-52.34392 0,0 z"
       id="path57"
       inkscape:connector-curvature="0" /><path
       d="m 463.75033,266.75956 c 0.63178,1.35935 1.15351,2.75538 1.56518,4.18606 0.41168,1.43271 0.71738,2.87561 0.91099,4.33278 -2.52508,0.92116 -4.79337,1.52849 -6.8069,1.81993 -2.01355,0.29143 -4.18606,0.43612 -6.51548,0.43612 -4.12491,0 -7.74032,-0.66641 -10.84827,-2.0013 -3.10591,-1.3349 -5.71454,-3.20373 -7.82591,-5.60654 -2.11136,-2.4028 -3.701,-5.25395 -4.76891,-8.55348 -1.0679,-3.29951 -1.60186,-6.89249 -1.60186,-10.77488 0,-3.88239 0.55841,-7.48557 1.67523,-10.81157 1.11682,-3.32398 2.72888,-6.19959 4.84024,-8.62685 2.11137,-2.42725 4.70777,-4.31852 7.78923,-5.67786 3.08145,-1.35934 6.58885,-2.03799 10.52014,-2.03799 2.32944,0 4.47748,0.14469 6.44211,0.43613 1.96462,0.29143 4.08822,0.89876 6.37078,1.81992 -0.0978,1.45514 -0.38722,2.87561 -0.8743,4.25941 -0.48505,1.38381 -1.01901,2.7778 -1.60186,4.18606 -1.6997,-0.58287 -3.20374,-0.99455 -4.51417,-1.23706 -1.31043,-0.24253 -2.86339,-0.36481 -4.65886,-0.36481 -4.65887,0 -8.23962,1.51627 -10.73821,4.55085 -2.49858,3.03254 -3.74992,7.53448 -3.74992,13.5058 0,11.8428 5.02367,17.76319 15.06896,17.76319 1.79548,0 3.37288,-0.12228 4.73222,-0.3648 1.36138,-0.24456 2.89192,-0.65624 4.58957,-1.23911 l 0,0 z"
       id="path59"
       inkscape:connector-curvature="0" /><path
       d="m 474.16042,224.31623 c 1.79548,-0.29143 3.5665,-0.43817 5.3151,-0.43817 1.74656,0 3.54205,0.14674 5.38642,0.43817 l 0,52.34392 c -1.84437,0.29144 -3.61539,0.43613 -5.31509,0.43613 -1.79548,0 -3.59095,-0.14469 -5.38846,-0.43613 l 0,-52.34392 0.002,0 z"
       id="path61"
       inkscape:connector-curvature="0" /><path
       d="m 505.24803,233.34252 -13.03095,0 c -0.29143,-1.45512 -0.43614,-2.98566 -0.43614,-4.58548 0,-1.50405 0.14471,-2.98568 0.43614,-4.44081 l 36.76547,0 c 0.29143,1.45513 0.43613,2.93676 0.43613,4.44081 0,1.60186 -0.1447,3.13036 -0.43613,4.58548 l -13.03095,0 0,43.31763 c -0.8743,0.0978 -1.74657,0.18138 -2.62087,0.25475 -0.87431,0.0734 -1.7221,0.11001 -2.5475,0.11001 -0.82539,0 -1.71191,-0.0245 -2.65754,-0.0734 -0.94563,-0.0489 -1.90554,-0.14469 -2.87561,-0.29143 l 0,-43.31763 -0.002,0 z"
       id="path63"
       inkscape:connector-curvature="0" /><path
       d="m 536.3336,224.31623 c 1.79548,-0.29143 3.5665,-0.43817 5.3151,-0.43817 1.74657,0 3.54408,0.14674 5.38643,0.43817 l 0,52.34392 c -1.84439,0.29144 -3.61541,0.43613 -5.3151,0.43613 -1.79548,0 -3.59095,-0.14469 -5.38643,-0.43613 l 0,-52.34392 0,0 z"
       id="path65"
       inkscape:connector-curvature="0" /><path
       d="m 557.22715,224.31623 29.70381,0 c 0.29144,1.45513 0.43613,2.93676 0.43613,4.44081 0,1.60186 -0.14469,3.13036 -0.43613,4.58548 l -19.07361,0 0,11.35776 15.14232,0 c 0.29142,1.55296 0.43816,3.057 0.43816,4.51417 0,1.55295 -0.14469,3.08145 -0.43816,4.58753 l -15.14232,0 0,13.83188 19.58311,0 c 0.29143,1.45513 0.43613,2.93676 0.43613,4.44081 0,1.60186 -0.1447,3.13036 -0.43613,4.58548 l -30.21331,0 0,-52.34392 0,0 z"
       id="path67"
       inkscape:connector-curvature="0" /><path
       d="m 605.42374,252.41818 c -1.65077,-0.63177 -3.13036,-1.32266 -4.44079,-2.07469 -1.31043,-0.75201 -2.42725,-1.65077 -3.34842,-2.69423 -0.92322,-1.04344 -1.63856,-2.29274 -2.14806,-3.74991 -0.5095,-1.45717 -0.76425,-3.20373 -0.76425,-5.24172 0,-2.47617 0.42391,-4.65887 1.27375,-6.55217 0.84985,-1.8933 2.05023,-3.48294 3.60318,-4.76891 1.55296,-1.28598 3.4218,-2.25607 5.60653,-2.91231 2.18473,-0.65622 4.63441,-0.98231 7.3531,-0.98231 2.47616,0 4.79337,0.21807 6.95161,0.65624 2.16027,0.43613 4.42856,1.06791 6.8069,1.8933 -0.29142,2.81448 -1.06791,5.58208 -2.32943,8.29872 -0.72756,-0.29143 -1.46735,-0.58286 -2.21937,-0.8743 -0.75203,-0.29143 -1.55296,-0.53396 -2.4028,-0.72756 -0.84985,-0.19361 -1.8077,-0.35258 -2.87562,-0.47282 -1.06791,-0.12227 -2.28052,-0.18138 -3.63986,-0.18138 -0.82539,0 -1.66301,0.0734 -2.51081,0.21807 -0.84985,0.14469 -1.6141,0.41167 -2.29275,0.80093 -0.67866,0.38722 -1.23706,0.95785 -1.67524,1.70988 -0.43613,0.75202 -0.65419,1.73638 -0.65419,2.94898 0,0.97213 0.16916,1.78325 0.5095,2.43948 0.34034,0.6542 0.80093,1.21261 1.3838,1.67523 0.58287,0.46059 1.23706,0.84986 1.96462,1.16574 0.72758,0.31589 1.45717,0.61955 2.18474,0.90895 l 4.36743,1.67524 c 1.84439,0.72756 3.51962,1.47958 5.02366,2.25605 1.50404,0.77648 2.77779,1.73638 3.82125,2.87562 1.04345,1.14128 1.85661,2.52304 2.43948,4.14936 0.58287,1.62633 0.8743,3.62764 0.8743,6.00597 0,2.47414 -0.44837,4.73224 -1.34712,6.77023 -0.89876,2.038 -2.19695,3.7866 -3.8946,5.24174 -1.6997,1.45513 -3.79884,2.5964 -6.29742,3.42179 -2.50063,0.8254 -5.37419,1.23706 -8.62684,1.23706 -1.60187,0 -3.03254,-0.0489 -4.2961,-0.14469 -1.26152,-0.0979 -2.46394,-0.25475 -3.60318,-0.47281 -1.14128,-0.21807 -2.26829,-0.49728 -3.38511,-0.83762 -1.11683,-0.34034 -2.28052,-0.75202 -3.49517,-1.23706 0.14674,-1.40826 0.41372,-2.87563 0.80094,-4.40412 0.38722,-1.5285 0.84984,-3.06923 1.3838,-4.62218 2.03799,0.82539 3.95575,1.44291 5.75122,1.85662 1.79548,0.41167 3.71324,0.61955 5.75123,0.61955 3.05699,0 5.4598,-0.57064 7.20636,-1.71191 1.7486,-1.14129 2.62086,-2.87563 2.62086,-5.20505 0,-1.16574 -0.20584,-2.13583 -0.61955,-2.9123 -0.41167,-0.77648 -0.94563,-1.43068 -1.60187,-1.96667 -0.65623,-0.53396 -1.39602,-0.98231 -2.22141,-1.34711 -0.82538,-0.36481 -1.67524,-0.71534 -2.54749,-1.05568 l -4.44081,-1.67524 0,0 z"
       id="path69"
       inkscape:connector-curvature="0" /><path
       d="m 25.138695,293.48382 -0.179344,3.95372 c -1.263558,-0.51765 -2.486356,-0.91099 -3.694889,-1.16981 -1.20038,-0.25883 -2.423179,-0.38315 -3.664318,-0.38315 -3.921107,0 -7.029053,1.14535 -9.3360654,3.43606 -2.3070128,2.29072 -3.4605193,5.38032 -3.4605193,9.27289 0,3.93741 1.1453545,7.02906 3.4442153,9.28104 2.2988604,2.252 5.4292244,3.38105 9.3972044,3.38105 1.255407,0 2.486357,-0.11822 3.678585,-0.36073 1.192229,-0.23641 2.368153,-0.58899 3.537963,-1.05161 l 0.13247,4.09433 c -1.12905,0.36888 -2.337583,0.65012 -3.623559,0.83966 -1.285976,0.19565 -2.651434,0.28939 -4.096374,0.28939 -5.34159,0 -9.5541307,-1.45105 -12.6457723,-4.35315 C 1.5448019,317.80324 0,313.84952 0,308.83606 c 0,-5.07666 1.5774098,-9.11597 4.7220395,-12.11998 3.1446296,-3.004 7.3734745,-4.50193 12.6926465,-4.50193 1.426597,0 2.785942,0.10192 4.08007,0.31385 1.298204,0.20176 2.514889,0.52376 3.643939,0.95582 l 0,0 z"
       id="path71"
       inkscape:connector-curvature="0" /><polygon
       points="316.144,243.498 316.144,236.709 318.384,236.709 318.384,252.736 316.144,252.736 316.144,245.323 308.869,245.323 308.869,252.736 306.629,252.736 306.629,236.709 306.629,236.709 308.869,236.709 308.869,243.498 "
       id="polygon73"
       transform="matrix(2.0379972,0,0,2.0379972,-569.64059,-190.10438)" /><path
       d="m 124.05696,296.30644 -6.48082,16.6158 12.75582,0 -6.275,-16.6158 0,0 z m -2.69015,-3.99854 5.56169,0 12.8027,32.66502 -4.94214,0 -3.14464,-8.37821 -15.53972,0 -3.14463,8.37821 -4.62014,0 13.02688,-32.66502 0,0 z"
       id="path75"
       inkscape:connector-curvature="0" /><polygon
       points="364.25,250.866 370.648,250.866 370.648,252.736 362.01,252.736 362.01,236.709 362.01,236.709 364.25,236.709 "
       id="polygon77"
       transform="matrix(2.0379972,0,0,2.0379972,-569.64059,-190.10438)" /><polygon
       points="387.187,250.866 393.585,250.866 393.585,252.736 384.947,252.736 384.947,236.709 384.947,236.709 387.187,236.709 "
       id="polygon79"
       transform="matrix(2.0379972,0,0,2.0379972,-569.64059,-190.10438)" /><polygon
       points="410.124,238.44 410.124,243.521 416.221,243.521 416.221,245.323 410.124,245.323 410.124,250.889 416.775,250.889 416.775,252.736 407.884,252.736 407.884,236.709 407.884,236.709 416.564,236.709 416.564,238.44 "
       id="polygon81"
       transform="matrix(2.0379972,0,0,2.0379972,-569.64059,-190.10438)" /><path
       d="m 311.6811,292.3079 5.75122,0 14.20688,25.42402 c 0.19565,0.36888 0.43817,0.9334 0.72146,1.68746 0.28328,0.76017 0.58082,1.65484 0.88652,2.682 -0.19564,-1.20039 -0.35256,-2.27441 -0.46262,-3.23226 -0.10193,-0.95582 -0.15693,-1.78121 -0.15693,-2.47006 l 0,-24.09116 4.18809,0 0,32.66502 -5.59431,0 -14.45755,-25.65228 c -0.17934,-0.3057 -0.39944,-0.82334 -0.66642,-1.55295 -0.25882,-0.7296 -0.54822,-1.67931 -0.87022,-2.83893 0.22825,1.74861 0.39129,3.0998 0.49318,4.04747 0.10193,0.9497 0.14879,1.63243 0.14879,2.04818 l 0,23.95054 -4.18809,0 0,-32.66705 0,0 z"
       id="path83"
       inkscape:connector-curvature="0" /><path
       d="m 394.72337,293.76507 -0.66643,3.85997 c -1.23909,-0.62771 -2.54137,-1.09849 -3.89868,-1.41234 -1.36546,-0.31385 -2.76148,-0.47078 -4.18197,-0.47078 -3.93741,0 -7.08408,1.19223 -9.45224,3.57872 -2.36203,2.37631 -3.54611,5.53113 -3.54611,9.46039 0,3.85997 1.18408,6.94346 3.54611,9.24843 2.36816,2.30701 5.53928,3.46052 9.49911,3.46052 0.90283,0 1.78936,-0.0795 2.64329,-0.22826 0.85596,-0.15692 1.70172,-0.39129 2.52712,-0.71329 l 0,-9.93116 -6.82526,0 0,-3.57669 11.24975,0 0,16.37938 c -1.51424,0.56453 -3.10591,0.98843 -4.77096,1.27172 -1.66301,0.28327 -3.40346,0.4239 -5.22339,0.4239 -5.36604,0 -9.60915,-1.47348 -12.74766,-4.42449 -3.13038,-2.94899 -4.6976,-6.95773 -4.6976,-12.01807 0,-5.02163 1.58354,-9.03038 4.74651,-12.01807 3.16092,-2.98974 7.42849,-4.48767 12.78639,-4.48767 1.52238,0 3.02847,0.13247 4.53454,0.3913 1.49589,0.26493 2.99382,0.66438 4.47748,1.20649 l 0,0 z"
       id="path85"
       inkscape:connector-curvature="0" /><polygon
       points="491.79,238.44 491.79,243.521 497.888,243.521 497.888,245.323 491.79,245.323 491.79,250.889 498.442,250.889 498.442,252.736 489.55,252.736 489.55,236.709 489.55,236.709 498.23,236.709 498.23,238.44 "
       id="polygon87"
       transform="matrix(2.0379972,0,0,2.0379972,-569.64059,-190.10438)" /><path
       d="m 212.83008,44.71162 0,0 c 2.09711,0 3.8131,1.715994 3.8131,3.813093 l 0,16.554652 c 0,2.097099 -1.71599,3.813092 -3.8131,3.813092 l 0,0 c -2.0971,0 -3.81309,-1.715993 -3.81309,-3.813092 l 0,-16.554652 c 0,-2.097099 1.71599,-3.813093 3.81309,-3.813093 l 0,0 z"
       id="path139"
       inkscape:connector-curvature="0"
       style="clip-rule:evenodd;fill:#31b44e;fill-rule:evenodd" /><path
       d="m 194.85699,14.443286 0,0 c 2.09709,0 3.81309,1.715993 3.81309,3.813092 l 0,3.004008 c 0,2.097099 -1.716,3.813094 -3.81309,3.813094 l 0,0 c -2.09711,0 -3.8131,-1.715995 -3.8131,-3.813094 l 0,-3.004008 c -0.002,-2.097099 1.71599,-3.813092 3.8131,-3.813092 l 0,0 z"
       id="path141"
       inkscape:connector-curvature="0"
       style="clip-rule:evenodd;fill-rule:evenodd" /><path
       d="m 194.85699,32.620183 0,0 c 2.09709,0 3.81309,1.715993 3.81309,3.813092 l 0,21.441769 -2.89395,-0.768325 -4.73224,0.921175 0,-21.594619 c -0.002,-2.09506 1.71599,-3.813092 3.8131,-3.813092 l 0,0 z"
       id="path143"
       inkscape:connector-curvature="0"
       style="clip-rule:evenodd;fill:#ed1c24;fill-rule:evenodd" /><path
       d="m 168.27539,0 0,0 c 2.0971,0 3.8131,1.7159936 3.8131,3.8130927 l 0,57.9015383 -7.62619,1.483662 0,-59.3852003 C 164.4623,1.7159936 166.17829,0 168.27539,0 l 0,0 z"
       id="path145"
       inkscape:connector-curvature="0"
       style="clip-rule:evenodd;fill:#2e3192;fill-rule:evenodd" /><path
       d="m 109.65648,62.527792 0,0 c 2.0971,0 3.81309,1.715993 3.81309,3.813092 l 0,48.962886 -4.76891,1.01084 0,15.21365 -2.85728,0.4667 0,-65.654076 c 0,-2.097099 1.716,-3.813092 3.8131,-3.813092 l 0,0 z"
       id="path147"
       inkscape:connector-curvature="0"
       style="clip-rule:evenodd;fill:#939598;fill-rule:evenodd" /><path
       d="m 130.95559,39.734831 0,0 c 2.09709,0 3.81309,1.72007 3.81309,3.813093 l 0,11.524874 c 0,2.093023 -1.716,3.813092 -3.81309,3.813092 l 0,0 c -2.09711,0 -3.8131,-1.715993 -3.8131,-3.813092 l 0,-11.524874 c 0,-2.097099 1.71599,-3.813093 3.8131,-3.813093 l 0,0 z"
       id="path149"
       inkscape:connector-curvature="0"
       style="clip-rule:evenodd;fill:#f3a51d;fill-rule:evenodd" /><path
       d="m 130.95559,63.451005 0,0 c 2.09709,0 3.81309,1.715993 3.81309,3.813092 l 0,15.311473 -7.45704,-0.874301 -0.16915,0.03668 0,-14.473856 c 0,-2.097099 1.71599,-3.813092 3.8131,-3.813092 l 0,0 z"
       id="path151"
       inkscape:connector-curvature="0"
       style="clip-rule:evenodd;fill:#2e3192;fill-rule:evenodd" /><path
       d="m 269.65963,150.16371 10.28578,-19.03082 7.36124,14.74899 0,35.6568 -17.46564,5.03588 0,-36.43327 -0.18138,0.0224 0,0 z m 128.65876,54.05379 -398.314314,0 C 34.048818,198.32566 69.41826,193.95212 105.87395,191.22528 l 0,-80.88811 7.4285,-1.21057 0,-15.397071 14.42291,-3.056997 24.02595,2.820589 0,10.725979 6.1038,0 0,51.57355 6.1466,0 0,-83.478396 31.46871,-6.120105 21.41732,5.683974 0,69.410107 12.57647,-18.21155 3.84775,-0.70718 0,-0.60325 0,-8.04193 4.34093,-1.17389 0,9.02222 0,14.80604 4.74242,-4.89119 0,-10.78508 3.56242,-0.65419 15.92694,-2.92249 5.82461,11.46169 -3.52778,0.66235 -4.00059,-8.0134 -18.43165,30.64128 0,29.54282 7.43258,-2.65959 0,-27.04015 11.68384,-19.44453 20.13949,-3.69489 11.44743,22.53413 -2.82671,-0.58286 -0.59916,-1.20038 c 0,15.57844 0.0183,27.31731 0.0204,42.11114 35.88913,2.66773 72.37132,6.89046 109.27129,12.77415 l 0,0 z m -166.37189,-37.46857 -10.93997,-0.33423 0,-9.23416 10.93997,-0.76426 0,10.33265 0,0 z m -19.41193,-19.15922 -4.68942,6.79062 4.68942,-0.34646 0,10.03916 -15.9351,3.60522 0,-95.545378 15.9351,3.676548 0,71.78029 0,0 z m -41.88898,-68.020185 7.62617,-1.389915 0,11.033717 -7.62617,0.478929 0,-10.122731 0,0 z m 7.62617,14.608363 0,10.532372 -7.62617,0.3485 0,-10.530336 7.62617,-0.350536 0,0 z m 0,15.496932 0,10.94201 -7.62617,0.21806 0,-10.93997 7.62617,-0.2201 0,0 z m 0,15.90453 0,10.31023 -7.62617,-0.0428 0,-10.1798 7.62617,-0.0876 0,0 z m 0,15.27275 0,9.98211 -7.62617,-0.1712 0,-9.98414 7.62617,0.17323 0,0 z m 0,14.94871 0,10.12273 -7.62617,-1.24318 0,-9.18525 7.62617,0.3057 0,0 z m 3.95983,-78.179611 7.62415,-1.387877 0,12.254478 -7.62415,0.478929 0,-11.34553 0,0 z m 7.62415,16.02681 0,10.532371 -7.62415,0.3485 0,-10.532374 7.62415,-0.348497 0,0 z m 0,15.694621 0,10.93996 -7.62415,0.21807 0,-10.93997 7.62415,-0.21806 0,0 z m 0,16.10221 0,10.50995 -7.62415,-0.0428 0,-10.37952 7.62415,-0.0876 0,0 z m 0,15.67016 0,9.98211 -7.62415,-0.17119 0,-9.98212 7.62415,0.1712 0,0 z m 0,15.14639 0,11.61048 -7.62415,-1.24318 0,-10.67096 7.62415,0.30366 0,0 z m -36.67988,-47.60557 0,72.46303 -14.62466,5.82459 0,-80.829 -8.23962,0.6277 0,-10.418242 17.29037,1.695615 0,10.381557 5.57391,0.25475 0,0 z m -29.06183,4.91361 7.62618,-0.53599 0,73.41681 -7.62618,-1.24522 0,-71.6356 0,0 z m -12.58463,1.73637 7.62618,-0.53803 0,69.53442 -7.62618,-1.24521 0,-67.75118 0,0 z"
       id="path153"
       inkscape:connector-curvature="0"
       style="clip-rule:evenodd;fill:#939598;fill-rule:evenodd" /><path
       d="m 285.20548,88.773119 0,0 c 2.09709,0 3.81309,1.715994 3.81309,3.813093 l 0,32.212578 -3.11202,-6.12621 -4.51416,0.82742 0,-26.913788 c 0,-2.097099 1.71599,-3.813093 3.81309,-3.813093 l 0,0 z"
       id="path155"
       inkscape:connector-curvature="0"
       style="clip-rule:evenodd;fill-rule:evenodd" /><path
       d="m 261.23659,59.864129 0,0 c 2.0971,0 3.8131,1.718032 3.8131,3.813093 l 0,43.859738 -7.62822,1.4001 0,-45.2578 c 0,-2.099137 1.71802,-3.815131 3.81512,-3.815131 l 0,0 z"
       id="path157"
       inkscape:connector-curvature="0"
       style="clip-rule:evenodd;fill:#f3a51d;fill-rule:evenodd" /><path
       d="m 261.23659,0.08763388 0,0 c 2.0971,0 3.8131,1.71803162 3.8131,3.81309272 l 0,38.9502024 c 0,2.095061 -1.716,3.813092 -3.8131,3.813092 l 0,0 c -2.0971,0 -3.81309,-1.715993 -3.81309,-3.813092 l 0,-38.9481644 c -0.002,-2.0991371 1.71599,-3.81513072 3.81309,-3.81513072 l 0,0 z"
       id="path159"
       inkscape:connector-curvature="0"
       style="clip-rule:evenodd;fill-rule:evenodd" /><path
       d="m 109.65648,44.923572 0,0 c 2.0971,0 3.81309,1.715993 3.81309,3.813092 l 0,3.004009 c 0,2.097099 -1.71599,3.813092 -3.81309,3.813092 l 0,0 c -2.0971,0 -3.8131,-1.715993 -3.8131,-3.813092 l 0,-3.004009 c 0,-2.097099 1.716,-3.813092 3.8131,-3.813092 l 0,0 z"
       id="path161"
       inkscape:connector-curvature="0"
       style="clip-rule:evenodd;fill-rule:evenodd" /><path
       d="m 237.45724,75.177641 0,0 c 2.09711,0 3.8131,1.715993 3.8131,3.813092 l 0,1.618169 c 0,2.097099 -1.71599,3.813094 -3.8131,3.813094 l 0,0 c -2.0971,0 -3.81309,-1.715995 -3.81309,-3.813094 l 0,-1.618169 c -0.002,-2.097099 1.71599,-3.813092 3.81309,-3.813092 l 0,0 z"
       id="path163"
       inkscape:connector-curvature="0"
       style="clip-rule:evenodd;fill:#f3a51d;fill-rule:evenodd" /><path
       d="m 237.45724,88.773119 0,0 c 2.09711,0 3.8131,1.72007 3.8131,3.813093 l 0,11.524878 c 0,2.09302 -1.71599,3.81309 -3.8131,3.81309 l 0,0 c -2.0971,0 -3.81309,-1.71599 -3.81309,-3.81309 l 0,-11.524878 c -0.002,-2.097099 1.71599,-3.813093 3.81309,-3.813093 l 0,0 z"
       id="path165"
       inkscape:connector-curvature="0"
       style="clip-rule:evenodd;fill:#939598;fill-rule:evenodd" /><path
       d="m 237.45724,88.773119 0,0 c 2.09711,0 3.8131,1.72007 3.8131,3.813093 l 0,11.524878 c 0,2.09302 -1.71599,3.81309 -3.8131,3.81309 l 0,0 c -2.0971,0 -3.81309,-1.71599 -3.81309,-3.81309 l 0,-11.524878 c -0.002,-2.097099 1.71599,-3.813093 3.81309,-3.813093 l 0,0 z"
       id="path167"
       inkscape:connector-curvature="0"
       style="clip-rule:evenodd;fill:#31b44e;fill-rule:evenodd" /><path
       d="m 154.04406,57.620295 0,0 c 2.0971,0 3.81309,1.726184 3.81309,3.813092 l 0,18.339937 c 0,2.086909 -1.71599,3.813092 -3.81309,3.813092 l 0,0 c -2.09711,0 -3.8131,-1.715993 -3.8131,-3.813092 l 0,-18.339937 c -0.002,-2.097099 1.71396,-3.813092 3.8131,-3.813092 l 0,0 z"
       id="path169"
       inkscape:connector-curvature="0"
       style="clip-rule:evenodd;fill:#ed1c24;fill-rule:evenodd" /><path
       d="m 180.95784,47.517942 0,0 c 2.0971,0 3.81309,1.715994 3.81309,3.813093 l 0,1.61817 c 0,2.097099 -1.71599,3.813092 -3.81309,3.813092 l 0,0 c -2.09709,0 -3.81308,-1.715993 -3.81308,-3.813092 l 0,-1.61817 c -0.002,-2.097099 1.71395,-3.813093 3.81308,-3.813093 l 0,0 z"
       id="path171"
       inkscape:connector-curvature="0"
       style="clip-rule:evenodd;fill:#f3a51d;fill-rule:evenodd" /></g></svg>